<?xml version="1.0" encoding="utf-8"?>
<!-- Generator: Adobe Illustrator 19.0.0, SVG Export Plug-In . SVG Version: 6.00 Build 0)  -->
<svg version="1.1" id="Layer_1" xmlns="http://www.w3.org/2000/svg" xmlns:xlink="http://www.w3.org/1999/xlink" x="0px" y="0px"
	 viewBox="0 0 612 792" style="enable-background:new 0 0 612 792;" xml:space="preserve">
<path id="XMLID_613_" d="M361.1,288.4c-14.7,4.9-21,17.3-21,30.9V390c0,21.1-17.1,38.6-38.1,38.6c-19.1,0-38.9-7.8-38.9-34.9V291.7
	h-17v103c0,34.2,19.1,50.1,52.2,50.1c14.9,0,31.8-5.8,41.8-17.6v33.2c0,8.5-1.6,15.4-5.5,20.8c-3.4,4.6-8,8.1-14.1,10.4l4.9,12.9
	c9.9-3.1,16.9-7.3,22.2-12.9c6.8-7.4,9.5-17.3,9.5-30.9v-141c0-12.2,4-15.8,9.6-18.3L361.1,288.4z"/>
</svg>
