<?xml version="1.0" encoding="utf-8"?>
<!-- Generator: Adobe Illustrator 19.0.0, SVG Export Plug-In . SVG Version: 6.00 Build 0)  -->
<svg version="1.1" id="Layer_1" xmlns="http://www.w3.org/2000/svg" xmlns:xlink="http://www.w3.org/1999/xlink" x="0px" y="0px"
	 width="750.4px" height="453.7px" viewBox="-116 231 750.4 453.7" style="enable-background:new -116 231 750.4 453.7;"
	 xml:space="preserve">
<style type="text/css">
	.st0{fill:none;stroke:#000000;stroke-width:0.25;stroke-miterlimit:10;}
	.st1{enable-background:new    ;}
	.st2{font-family:'monospace';}
	.st3{font-size:12.5385px;}
	.st4{font-size:8.2404px;}
	.st5{fill:#54AF25;}
	.st6{fill:#FFFFFF;}
	.st7{font-family:'monospace'; font-weight:bold;}
	.st8{font-size:8.2944px;}
</style>
<g id="XMLID_1842_">
	<rect id="XMLID_1840_" x="-116" y="231" class="st0" width="187.6" height="113.4"/>
	<g id="XMLID_2490_" class="st1">
		<text transform="matrix(1 0 0 1 -107.3073 257.5071)" class="st2 st3">thn</text>
	</g>
	<g id="XMLID_2489_" class="st1">
		<text transform="matrix(1 0 0 1 -107.3071 244.8586)" class="st2 st4">∞3</text>
	</g>
	<rect id="XMLID_1845_" x="-116" y="571.3" class="st0" width="187.6" height="113.4"/>
	<rect id="XMLID_1848_" x="-116" y="457.9" class="st0" width="187.6" height="113.4"/>
	<rect id="XMLID_1866_" x="-116" y="344.4" class="st0" width="187.6" height="113.4"/>
	<g id="XMLID_2491_" class="st1">
		<text transform="matrix(1 0 0 1 -107.3073 371.2434)" class="st2 st3">reg</text>
	</g>
	<g id="XMLID_2605_" class="st1">
		<text transform="matrix(1 0 0 1 -107.3071 357.9007)" class="st2 st4">∞3</text>
	</g>
	<g id="XMLID_2492_" class="st1">
		<text transform="matrix(1 0 0 1 -107.3071 484.3928)" class="st2 st3">bld</text>
	</g>
	<g id="XMLID_2439_" class="st1">
		<text transform="matrix(1 0 0 1 -107.3071 471.9915)" class="st2 st4">∞3</text>
	</g>
	<g id="XMLID_2493_" class="st1">
		<text transform="matrix(1 0 0 1 -107.3071 599.7258)" class="st2 st3">blk</text>
	</g>
	<g id="XMLID_2459_" class="st1">
		<text transform="matrix(1 0 0 1 -107.3071 586.2072)" class="st2 st4">∞4</text>
	</g>
	<g id="XMLID_2521_" class="st1">
		<text transform="matrix(1 0 0 1 54.6922 244.8586)" class="st2 st4">MO</text>
	</g>
	<g id="XMLID_1911_" class="st1">
		<text transform="matrix(1 0 0 1 54.6922 357.9007)" class="st2 st4">MO</text>
	</g>
	<g id="XMLID_1877_" class="st1">
		<text transform="matrix(1 0 0 1 54.6922 471.9915)" class="st2 st4">MO</text>
	</g>
	<g id="XMLID_1870_" class="st1">
		<text transform="matrix(1 0 0 1 54.6922 586.2072)" class="st2 st4">MO</text>
	</g>
	<g id="XMLID_2758_" class="st1">
		<text transform="matrix(1 0 0 1 -107.3071 336.0716)" class="st2 st4">100</text>
	</g>
	<g id="XMLID_2579_" class="st1">
		<text transform="matrix(1 0 0 1 -107.3071 449.1144)" class="st2 st4">400</text>
	</g>
	<g id="XMLID_2576_" class="st1">
		<text transform="matrix(1 0 0 1 -107.3071 563.2043)" class="st2 st4">700</text>
	</g>
	<g id="XMLID_2561_" class="st1">
		<text transform="matrix(1 0 0 1 -107.3071 677.4211)" class="st2 st4">900</text>
	</g>
	<line id="XMLID_891_" class="st0" x1="-107.3" y1="308.9" x2="63.8" y2="308.9"/>
	<line id="XMLID_907_" class="st0" x1="-107.7" y1="422.3" x2="63.3" y2="422.3"/>
	<line id="XMLID_908_" class="st0" x1="-107.7" y1="535.6" x2="63.3" y2="535.6"/>
	<line id="XMLID_911_" class="st0" x1="-107.7" y1="649" x2="63.3" y2="649"/>
</g>
<g id="XMLID_1868_">
	<rect id="XMLID_2478_" x="71.6" y="231" class="st0" width="187.6" height="113.4"/>
	<rect id="XMLID_2197_" x="71.6" y="571.3" class="st0" width="187.6" height="113.4"/>
	<rect id="XMLID_1906_" x="71.6" y="457.9" class="st0" width="187.6" height="113.4"/>
	<rect id="XMLID_1891_" x="71.6" y="344.4" class="st0" width="187.6" height="113.4"/>
	<g id="XMLID_2046_" class="st1">
		<text transform="matrix(1 0 0 1 79.315 257.5071)" class="st2 st3">thn_it</text>
	</g>
	<g id="XMLID_2010_" class="st1">
		<text transform="matrix(1 0 0 1 79.3149 244.8586)" class="st2 st4">∞3</text>
	</g>
	<g id="XMLID_1995_" class="st1">
		<text transform="matrix(1 0 0 1 79.315 371.2434)" class="st2 st3">reg_it</text>
	</g>
	<g id="XMLID_1977_" class="st1">
		<text transform="matrix(1 0 0 1 79.3149 357.9007)" class="st2 st4">∞3</text>
	</g>
	<g id="XMLID_1968_" class="st1">
		<text transform="matrix(1 0 0 1 79.315 484.3928)" class="st2 st3">bld_it</text>
	</g>
	<g id="XMLID_1965_" class="st1">
		<text transform="matrix(1 0 0 1 79.3149 471.9915)" class="st2 st4">∞3</text>
	</g>
	<g id="XMLID_1941_" class="st1">
		<text transform="matrix(1 0 0 1 79.3149 599.7258)" class="st2 st3">blk_it</text>
	</g>
	<g id="XMLID_1917_" class="st1">
		<text transform="matrix(1 0 0 1 79.3149 586.2072)" class="st2 st4">∞4</text>
	</g>
	<g id="XMLID_2558_" class="st1">
		<text transform="matrix(1 0 0 1 79.3149 336.0716)" class="st2 st4">100</text>
	</g>
	<g id="XMLID_2554_" class="st1">
		<text transform="matrix(1 0 0 1 79.3149 449.1144)" class="st2 st4">400</text>
	</g>
	<g id="XMLID_2551_" class="st1">
		<text transform="matrix(1 0 0 1 79.3149 563.2043)" class="st2 st4">700</text>
	</g>
	<g id="XMLID_2548_" class="st1">
		<text transform="matrix(1 0 0 1 79.3149 677.4211)" class="st2 st4">900</text>
	</g>
	<g id="XMLID_1881_" class="st1">
		<text transform="matrix(1 0 0 1 241.314 244.8586)" class="st2 st4">MG</text>
	</g>
	<g id="XMLID_1876_" class="st1">
		<text transform="matrix(1 0 0 1 241.314 357.9007)" class="st2 st4">MG</text>
	</g>
	<g id="XMLID_1846_" class="st1">
		<text transform="matrix(1 0 0 1 241.314 471.9915)" class="st2 st4">MG</text>
	</g>
	<g id="XMLID_1803_" class="st1">
		<text transform="matrix(1 0 0 1 241.314 586.2072)" class="st2 st4">MG</text>
	</g>
	<line id="XMLID_924_" class="st0" x1="80.1" y1="308.9" x2="251.1" y2="308.9"/>
	<line id="XMLID_923_" class="st0" x1="79.7" y1="422.3" x2="250.7" y2="422.3"/>
	<line id="XMLID_922_" class="st0" x1="79.7" y1="535.6" x2="250.7" y2="535.6"/>
	<line id="XMLID_912_" class="st0" x1="79.7" y1="649" x2="250.7" y2="649"/>
</g>
<g id="XMLID_897_">
	<rect id="XMLID_2160_" x="259.2" y="231" class="st0" width="187.6" height="113.4"/>
	<rect id="XMLID_2159_" x="259.2" y="571.3" class="st0" width="187.6" height="113.4"/>
	<line id="XMLID_1292_" class="st0" x1="267.7" y1="308.9" x2="438.8" y2="308.9"/>
	<line id="XMLID_1248_" class="st0" x1="267.3" y1="422.3" x2="438.3" y2="422.3"/>
	<line id="XMLID_1144_" class="st0" x1="267.3" y1="535.6" x2="438.3" y2="535.6"/>
	<line id="XMLID_925_" class="st0" x1="267.3" y1="649" x2="438.3" y2="649"/>
	<rect id="XMLID_2158_" x="259.2" y="457.9" class="st0" width="187.6" height="113.4"/>
	<rect id="XMLID_2157_" x="259.2" y="344.4" class="st0" width="187.6" height="113.4"/>
	<g id="XMLID_2078_" class="st1">
		<text transform="matrix(1 0 0 1 266.9192 257.5071)" class="st2 st3">thn_wd</text>
	</g>
	<g id="XMLID_2074_" class="st1">
		<text transform="matrix(1 0 0 1 266.9194 244.8586)" class="st2 st4">∞4</text>
	</g>
	<g id="XMLID_2068_" class="st1">
		<text transform="matrix(1 0 0 1 266.9192 371.2434)" class="st2 st3">reg_wd</text>
	</g>
	<g id="XMLID_2064_" class="st1">
		<text transform="matrix(1 0 0 1 266.9194 357.9007)" class="st2 st4">∞4</text>
	</g>
	<g id="XMLID_2060_" class="st1">
		<text transform="matrix(1 0 0 1 266.9192 484.3928)" class="st2 st3">bld_wd</text>
	</g>
	<g id="XMLID_2057_" class="st1">
		<text transform="matrix(1 0 0 1 266.9194 471.9915)" class="st2 st4">∞4</text>
	</g>
	<g id="XMLID_2050_" class="st1">
		<text transform="matrix(1 0 0 1 266.9195 599.7258)" class="st2 st3">blk_wd</text>
	</g>
	<g id="XMLID_1902_" class="st1">
		<text transform="matrix(1 0 0 1 266.9194 586.2072)" class="st2 st4">∞4</text>
	</g>
	<g id="XMLID_1899_" class="st1">
		<text transform="matrix(1 0 0 1 266.9194 336.0716)" class="st2 st4">100</text>
	</g>
	<g id="XMLID_1721_" class="st1">
		<text transform="matrix(1 0 0 1 266.9194 449.1144)" class="st2 st4">400</text>
	</g>
	<g id="XMLID_1599_" class="st1">
		<text transform="matrix(1 0 0 1 266.9194 563.2043)" class="st2 st4">700</text>
	</g>
	<g id="XMLID_1591_" class="st1">
		<text transform="matrix(1 0 0 1 266.9194 677.4211)" class="st2 st4">900</text>
	</g>
	<g id="XMLID_909_" class="st1">
		<text transform="matrix(1 0 0 1 428.9185 244.8586)" class="st2 st4">MG</text>
	</g>
	<g id="XMLID_906_" class="st1">
		<text transform="matrix(1 0 0 1 428.9185 357.9007)" class="st2 st4">MG</text>
	</g>
	<g id="XMLID_902_" class="st1">
		<text transform="matrix(1 0 0 1 428.9185 471.9915)" class="st2 st4">MG</text>
	</g>
	<g id="XMLID_898_" class="st1">
		<text transform="matrix(1 0 0 1 428.9185 586.2072)" class="st2 st4">MG</text>
	</g>
</g>
<g id="XMLID_893_">
	<rect id="XMLID_1978_" x="446.8" y="231" class="st0" width="187.6" height="113.4"/>
	<rect id="XMLID_1976_" x="446.8" y="571.3" class="st0" width="187.6" height="113.4"/>
	<rect id="XMLID_1974_" x="446.8" y="457.9" class="st0" width="187.6" height="113.4"/>
	<rect id="XMLID_1970_" x="446.8" y="344.4" class="st0" width="187.6" height="113.4"/>
	<g id="XMLID_1961_" class="st1">
		<text transform="matrix(1 0 0 1 454.5238 257.5071)" class="st2 st3">thn_wd_it</text>
	</g>
	<g id="XMLID_1958_" class="st1">
		<text transform="matrix(1 0 0 1 454.524 244.8586)" class="st2 st4">∞4</text>
	</g>
	<g id="XMLID_1954_" class="st1">
		<text transform="matrix(1 0 0 1 454.5238 371.2434)" class="st2 st3">reg_wd_it</text>
	</g>
	<g id="XMLID_1946_" class="st1">
		<text transform="matrix(1 0 0 1 454.524 357.9007)" class="st2 st4">∞4</text>
	</g>
	<g id="XMLID_1937_" class="st1">
		<text transform="matrix(1 0 0 1 454.5238 484.3928)" class="st2 st3">bld_wd_it</text>
	</g>
	<g id="XMLID_1934_" class="st1">
		<text transform="matrix(1 0 0 1 454.524 471.9915)" class="st2 st4">∞4</text>
	</g>
	<g id="XMLID_1931_" class="st1">
		<text transform="matrix(1 0 0 1 454.523 599.7258)" class="st2 st3">blk_wd_it</text>
	</g>
	<g id="XMLID_1927_" class="st1">
		<text transform="matrix(1 0 0 1 454.524 586.2072)" class="st2 st4">∞4</text>
	</g>
	<g id="XMLID_1924_" class="st1">
		<text transform="matrix(1 0 0 1 454.524 336.0716)" class="st2 st4">100</text>
	</g>
	<g id="XMLID_1921_" class="st1">
		<text transform="matrix(1 0 0 1 454.524 449.1144)" class="st2 st4">400</text>
	</g>
	<g id="XMLID_1915_" class="st1">
		<text transform="matrix(1 0 0 1 454.524 563.2043)" class="st2 st4">700</text>
	</g>
	<g id="XMLID_1905_" class="st1">
		<text transform="matrix(1 0 0 1 454.524 677.4211)" class="st2 st4">900</text>
	</g>
	<g id="XMLID_1839_" class="st1">
		<text transform="matrix(1 0 0 1 616.523 244.8586)" class="st2 st4">MG</text>
	</g>
	<g id="XMLID_910_" class="st1">
		<text transform="matrix(1 0 0 1 616.523 357.9007)" class="st2 st4">MG</text>
	</g>
	<g id="XMLID_904_" class="st1">
		<text transform="matrix(1 0 0 1 616.523 471.9915)" class="st2 st4">MG</text>
	</g>
	<g id="XMLID_899_" class="st1">
		<text transform="matrix(1 0 0 1 616.523 586.2072)" class="st2 st4">MG</text>
	</g>
	<line id="XMLID_2436_" class="st0" x1="455.3" y1="308.9" x2="626.4" y2="308.9"/>
	<line id="XMLID_2193_" class="st0" x1="454.9" y1="422.3" x2="625.9" y2="422.3"/>
	<line id="XMLID_2161_" class="st0" x1="454.9" y1="535.6" x2="625.9" y2="535.6"/>
	<line id="XMLID_1338_" class="st0" x1="454.9" y1="649" x2="625.9" y2="649"/>
</g>
<g id="XMLID_1293_">
	<path id="XMLID_1801_" d="M317.7,277.1l0.1-1.2c8.8,0,16.3,2,16.3,11.2v21.8c0.2,0-11.1,0.6-14.1,0.6c-11.4,0-16.1-3.9-16.1-11.6
		v-5.4c0-4.1,2.1-9.9,12.7-9.9c5.7,0,11.5,1.8,16.3,3.7C332.9,279.1,325.2,277.1,317.7,277.1z M332.9,287.8c-5.7-2.7-11.1-4-16.8-4
		c-8.2,0-11.1,4.1-11.1,8.9v5.7c0,4.8,2.6,10,15,10c3.5,0,13.2-0.6,12.9-0.6V287.8z"/>
	<path id="XMLID_1298_" d="M341.9,278.3c4.1-1.5,9.1-2.5,14.9-2.5c10.6,0,14,5.7,14,9.8c0-0.1,0,12.4,0,12.3
		c0,7.7-4.5,11.7-16.1,11.7c-2.9,0-14.4-0.6-14.1-0.6v-45.5h1.3L341.9,278.3L341.9,278.3z M354.8,308.4c8.6,0,14.8-2.4,14.8-10
		c0-1.2,0-11.1,0-12.5c0-4.9-4.4-8.9-12.6-8.9c-5.8,0-10.7,1.1-15.1,2.6c0-0.1,0,28.2,0,28.1C341.8,307.7,351.2,308.4,354.8,308.4z"
		/>
	<path id="XMLID_1297_" d="M401.3,279c-2.9-1.2-6.6-1.9-10.2-1.9c-8.3,0-13.1,3.8-13.1,11.5v9c0,7.9,5.9,10.9,14.2,10.9
		c5.1,0,9.5-1,9.5-1l0.3,1.2c-3.3,0.8-6.6,1-10,1c-9.2-0.1-15.2-3.5-15.3-12v-9.1c-0.1-7.9,5-12.7,14.8-12.7c3.5,0,7.1,0.8,10.4,2.1
		L401.3,279z"/>
</g>
<g>
	<path d="M-52.7,392l0.1-2.8c10.6,0,13.6,3.7,13.6,14.4v18.8c0.1,0-7.1,0.6-10.3,0.7c-8.4,0-14.8-1.8-14.8-11.7V406
		c0-7.3,4.8-9.8,10-9.8c4.2,0,8.4,1.7,11.4,3.5C-42.6,393.1-47.4,392-52.7,392z M-42.6,402.7c-3.5-1.8-7.6-3.4-11.7-3.4
		c-2.3,0-6.1,0.9-6.1,6.8v4.8c0,5.9,2,9.1,9.6,9.1c0.4,0,0.9-0.1,1.4-0.1c4.3-0.2,6.9-0.6,6.9-0.5V402.7z"/>
	<path d="M-29.8,391.6c2.9-1.3,6.3-2.4,10.6-2.4c5.2,0,10.8,2.5,10.8,9.8c0,4.1,0,8.3,0,12.4c0,9.8-6.3,11.7-14.8,11.7
		c-3.1-0.1-10.4-0.7-10.3-0.7v-45.7h3.7V391.6z M-22.9,419.9c7.1,0,10.9-1.1,10.9-9c0-1.2,0-10.4,0-11.7c0-6.1-4.6-7-7-7
		c-4.2,0-7.3,1.1-10.8,2.6c0,8.2,0,16.3,0,24.6C-29.8,419.4-27.1,419.7-22.9,419.9z"/>
	<path d="M16.6,394.2c-2.3-1-5.2-1.6-7.7-1.7c-6.1,0-8.5,4-8.6,9.7l-0.1,8.2c-0.1,6.7,2.7,9.3,8.9,9.5c3.8,0,7.9-1,7.8-0.9l0.7,3.3
		c-2.8,0.7-5.7,1-8.6,1c-7.5-0.1-12.4-3.8-12.4-12.1v-9.5c0-7.4,4-12.5,12.1-12.5c2.9,0,6,0.8,8.7,2.1L16.6,394.2z"/>
</g>
<g id="XMLID_2482_">
	<path id="XMLID_2484_" d="M317.2,391.7l0.2-2.8c12.6,0,16.2,3.7,16.2,14.4v18.8c0.2,0-8.5,0.6-12.3,0.7c-10.1,0-17.7-1.8-17.7-11.7
		v-5.4c0-7.3,5.8-9.8,12-9.8c5.1,0,10.6,1.7,14.4,3.5C329.9,392.8,323.5,391.7,317.2,391.7z M329.9,402.3c-4.3-1.8-9.8-3.4-14.7-3.4
		c-2.7,0-8.1,0.9-8.1,6.8v4.8c0,5.9,3.1,9.1,12.2,9.1c4.3,0,10.6-0.7,10.6-0.6V402.3z"/>
	<path id="XMLID_2487_" d="M344.1,391.2c3.5-1.3,8-2.4,13.2-2.4c6.3,0,13,2.5,13,9.8c0,4.1,0,8.3,0,12.4c0,9.8-7.6,11.7-17.8,11.7
		c-3.7-0.1-12.5-0.7-12.4-0.7v-45.7h3.9V391.2z M353.2,419.6c8.8,0,13.5-1.1,13.5-9c0-1.2,0-10.4,0-11.7c0-6.1-5.7-7-8.6-7
		c-5.2,0-9.6,1.1-13.9,2.6c0,8.2,0,16.3,0,24.6C344.1,419,347.9,419.3,353.2,419.6z"/>
	<path id="XMLID_2495_" d="M401.1,393.8c-2.8-1-6.6-1.6-9.9-1.7c-7.9,0-11,4-11.1,9.7l-0.1,8.2c-0.1,6.7,4.6,9.5,11.5,9.5
		c5,0,10.2-1,10-0.9l0.9,3.3c-3.5,0.7-7.1,1-10.7,1c-9.3-0.1-15.4-3.8-15.4-12.1v-9.5c0-7.4,5-12.5,15.1-12.5
		c3.7,0,7.5,0.8,10.9,2.1L401.1,393.8z"/>
</g>
<g>
	<path d="M-52.5,276.9l0.1-1.2c7.4,0,13.6,2,13.6,11.3v21.9c0.2,0-9.3,0.7-11.7,0.7c-9.5,0-13.4-3.9-13.4-11.7v-5.4
		c0-4.2,1.8-9.9,10.6-9.9c4.8,0,9.4,1.8,13.3,3.8C-40.1,278.9-46.2,276.9-52.5,276.9z M-40.1,287.9c-4.6-2.4-8.6-4-13.4-4
		c-6.8,0-9.3,4-9.3,8.8v5.7c0,4.8,2,10.1,12.2,10.1c2.9,0,10.7-0.7,10.5-0.7V287.9z"/>
	<path d="M-32.2,278.2c3.3-1.4,7.4-2.5,12.3-2.5c8.8,0,11.6,5.7,11.6,9.8c0-0.1,0,12.5,0,12.4c0,7.8-3.7,11.7-13.4,11.7
		c-2.4,0-11.9-0.7-11.7-0.7v-45.7h1.2V278.2z M-21.7,308.5c7.1,0,12.1-2.4,12.1-10.1c0-1.2,0-11.2,0-12.6c0-5-3.5-9-10.3-9
		c-4.8,0-8.8,1.1-12.3,2.7c0-0.1,0,28.4,0,28.3C-32.3,307.7-24.6,308.4-21.7,308.5z"/>
	<path d="M17,279c-2.7-1.4-5.4-2.1-8.5-2.1c-6.9,0-10.7,4.4-10.7,11.5v9c0,8,4.7,10.9,11.6,10.9c4.2,0,8-1.1,7.9-1l0.3,1.3
		c-2.7,0.8-5.5,1-8.3,1c-7.6-0.1-12.7-3.5-12.7-12.1v-9.1c-0.1-8,4.2-12.8,12.3-12.8c2.9,0,5.9,0.8,8.6,2.1L17,279z"/>
</g>
<g>
	<path d="M-53.2,507.3l0.6-5c9.8,0,13.6,3.2,13.6,13.2v20c-3.6,0.5-7.4,0.7-11.7,0.7c-7.4,0-13.4-2.5-13.4-10.9v-6.3
		c0-6.7,4.1-9.7,8.9-9.7c3.3,0,7.2,1.5,9.1,4.3C-46.2,508.8-48.3,507.3-53.2,507.3z M-46.2,519.1c-0.7-0.5-4.1-2.3-7.1-2.3
		c-2,0-3.6,0.7-3.6,3.2v4.2c0,3.3,0.8,5.4,6.7,5.4c1,0,4-0.3,4-0.3V519.1z"/>
	<path d="M-26.3,504.1c2.7-1.2,5.2-1.7,8.2-1.7c4.9,0,9.7,3.1,9.7,9.8c0-0.1,0,13.4,0,13.3c-0.4,8.5-6.1,10.9-13.6,10.9
		c-3.8,0-7.6-0.5-11.5-0.7V490h7.2V504.1z M-22.4,529.6c6.1,0,6.8-2.1,6.8-5.4c0-1,0-9.9,0-11.2c0-2.5-2.5-3.2-4.5-3.2
		c-3.1,0-5.5,1.1-6.2,1.6c0-0.1,0,18.1,0,18C-26.3,529.4-23.5,529.6-22.4,529.6z"/>
	<path d="M16.2,510c-1.6-0.8-3.5-1.4-5.4-1.5C7,508.5,4,509.7,4,514v10.2c0,4,2.7,5.9,6.8,5.9c2.8,0,5.9-0.7,5.8-0.7l1.3,5.9
		c-2.8,0.7-5.6,1.1-8.5,1.1c-7.5-0.3-12.5-3.7-12.5-12.1v-9.5c0-7.8,4.6-12.5,12.5-12.5c2.9,0.1,5.8,0.9,8.5,2.2L16.2,510z"/>
</g>
<g>
	<path d="M143.5,392l0.7-2.8c10.8,0,12.7,3.9,10.6,14.4l-4,18.8c0.1,0-7.2,0.6-10.4,0.7c-0.4,0-0.8,0-1.2,0c-7.7,0-13-2.5-11.1-11.7
		l1.2-5.4c1.5-7.3,6.8-9.8,12.1-9.8c4.3,0,8,1.7,10.7,3.5C153.3,393.1,148.6,392,143.5,392z M151.3,402.7c-3.1-1.8-6.9-3.4-11-3.4
		c-2.3,0-6.3,1-7.5,6.8l-1,4.8c-1.3,5.9,0,9.1,7.6,9.1c0.5,0,0.9-0.1,1.4-0.1c4.3-0.2,7-0.6,7-0.5L151.3,402.7z"/>
	<path d="M166.5,391.6c3.2-1.3,6.8-2.4,11.1-2.4c5.2,0,10.4,2.5,8.8,9.8c-0.9,4.1-1.8,8.3-2.7,12.4c-2,9.6-8.5,11.7-17.3,11.7
		c-3.1-0.1-10.3-0.7-10.2-0.7l9.7-45.7h3.7L166.5,391.6z M167.4,419.9c7.4,0,11.2-1.3,12.8-9c0.3-1.2,2.2-10.4,2.5-11.7
		c1.4-6.1-3.1-7-5.5-7c-4.2,0-7.5,1.1-11.4,2.6c-1.7,8.2-3.5,16.3-5.2,24.6C160.6,419.4,163.1,419.7,167.4,419.9z"/>
	<path d="M212.3,394.2c-2.1-1-5-1.6-7.4-1.6c-6.1,0-9.5,4.3-10.7,9.9l-1.7,7.8c-1.4,6.8,0.8,9.5,7.3,9.5c3.7-0.1,7.6-1,7.6-0.9v3.3
		c-2.7,0.7-5.5,1-8.2,1c-7.5,0-12.3-3.3-10.4-12.1l2-9.5c1.6-7.2,5.9-12.5,14.5-12.5c3,0,6,0.8,8.5,2.1L212.3,394.2z"/>
</g>
<g>
	<path d="M144,277l0.3-1.2c7.6,0,13,2.7,11.2,11.3l-4.7,21.9c0.3,0-9.5,0.7-11.9,0.7c-9.5,0-12.5-3.9-10.9-11.7l1.2-5.4
		c0.8-4.2,3.8-9.9,12.7-9.9c4.8,0,9,1.8,12.5,3.8C156,278.8,150,277,144,277z M154.1,287.9c-4.2-2.4-7.8-4-12.6-4
		c-6.7,0-10,3.9-11.1,8.7l-1.2,5.7c-1,4.7-0.3,10.1,10,10.1c2.9,0,10.9-0.7,10.7-0.7L154.1,287.9z"/>
	<path d="M164,278.2c3.6-1.4,8-2.5,12.7-2.5c8.8,0,10.4,5.7,9.6,9.8c0-0.1-2.7,12.5-2.7,12.4c-1.6,7.8-6.2,11.7-15.9,11.7
		c-2.4,0-11.7-0.7-11.5-0.7l9.7-45.7h1.2L164,278.2z M168,308.5c7.3,0,12.7-2.6,14.3-10.1c0.3-1.2,2.4-11.2,2.7-12.6
		c1-5-1.6-9-8.4-9c-4.8,0-9.1,1.1-12.9,2.7c0.1-0.1-6,28.4-6,28.3C157.6,307.7,165.1,308.4,168,308.5z"/>
	<path d="M213,279c-2.4-1.4-5.2-2-8-2c-6.9,0-11.7,5-13.2,11.5l-2,9c-1.6,7.6,1.8,10.8,8.8,10.9c0.1,0,0.3,0,0.4,0
		c4.3,0,8.3-1.1,8.3-1l-0.1,1.3c-3,0.7-6.1,1-9.1,1c-7.4-0.3-11.2-4-9.5-12.1l2-9.5c1.6-7.4,6.6-12.5,14.7-12.5
		c2.9,0,5.9,0.8,8.3,2.1L213,279z"/>
</g>
<g>
	<path d="M142.5,507.3l1.6-5c10,0,12.9,3.3,10.8,13.2l-4.3,20c-3.7,0.5-7.5,0.7-11.9,0.7c-7.4,0-12.8-2.6-11.1-10.9l1.4-6.3
		c1.5-6.6,6.1-9.7,10.9-9.7c3.1,0,6.8,1.4,8.2,4.3C149.2,509,147.6,507.3,142.5,507.3z M147,519.1c-0.7-0.5-3.7-2.3-6.7-2.3
		c-2,0-3.7,0.7-4.3,3.2l-0.8,4.2c-0.7,3.3-0.4,5.4,5.5,5.4c1.1,0,4.1-0.3,4-0.3L147,519.1z"/>
	<path d="M170.1,504.1c3.1-1.2,5.6-1.5,8.5-1.5c4.9,0,9.1,2.9,7.7,9.6c0-0.1-2.9,13.4-2.8,13.3c-2.2,8.5-8.5,10.9-16,10.9
		c-3.8,0-7.5-0.5-11.3-0.7l9.7-45.7h7.2L170.1,504.1z M168.5,529.6c6.1,0,7.3-2.1,8-5.4c0.3-1,2.1-9.9,2.4-11.2
		c0.5-2.5-1.9-3.2-3.8-3.2c-3.1,0-5.8,1.1-6.6,1.6c0.1-0.1-3.8,18.1-3.8,18C164.8,529.4,167.5,529.6,168.5,529.6z"/>
	<path d="M211.5,509.9c-1.6-0.8-3.6-1.4-5.6-1.4c-3.6,0-6.7,1.6-7.5,5.5l-2.2,10.2c-0.8,4,1.5,5.9,5.5,5.9c2.8,0,6-0.7,5.9-0.7
		l0.1,5.9c-2.9,0.8-5.8,1.1-8.8,1.1c-7.5-0.1-11.7-3.9-9.9-12.1l2.1-9.5c1.8-8.3,6.7-12.5,15.3-12.5c2.8,0.1,5.5,1,7.8,2.2
		L211.5,509.9z"/>
</g>
<g id="XMLID_900_">
	<g id="XMLID_2443_">
		<path id="XMLID_2445_" d="M-54.1,622.3l1.9-6.5c9.7,0,13.4,3.2,13.4,13.1v19.9c-3.5,0.6-7.3,0.7-11.6,0.7
			c-7.3,0-13.3-2.6-13.3-10.9v-6.3c0-6.6,5.7-8.2,8.8-8.2c2.1,0,2.9,0.3,4.4,1C-50.6,624.1-51.6,622.9-54.1,622.3z M-50.6,634.8
			c-0.1-0.1-0.7-0.3-1.2-0.3c-0.3,0-0.6,0.1-0.6,0.7v2.8c0,0.3,0.1,0.8,0.9,0.8c0.3,0,0.9,0,0.9,0L-50.6,634.8L-50.6,634.8z"/>
		<path id="XMLID_2444_" d="M15,627.5c-1-0.4-2.3-0.8-3.5-0.8c-1.7,0-2.8,0.7-2.8,3v5.7c0,2.3,1.1,3.3,2.8,3.3
			c1.8,0,3.8-0.4,3.7-0.4l2.2,10.2c-2.8,0.7-5.5,1.1-8.4,1.1c-7.4-0.3-12.4-3.7-12.4-12.1v-9.5c0-7.8,4.6-12.4,12.3-12.4
			c2.8,0.1,5.7,0.9,8.4,2.1L15,627.5z"/>
	</g>
	<path id="XMLID_2440_" d="M-21.4,617.1c0.6-0.3,3.2-1.3,5.3-1.3c4.4,0,7.7,3.1,7.7,9.7c0-0.1,0,13.3,0,13.2
		c-0.4,8.5-6.1,10.9-13.4,10.9c-3.8,0-7.5-0.6-11.4-0.7v-45.4h11.8C-21.4,603.5-21.4,617.1-21.4,617.1z M-20.8,639
		c1,0,1.1-0.5,1.1-1.2c0-0.2,0-9.7,0-10c0-0.6-0.4-0.7-0.8-0.7c-0.5,0-0.9,0.3-1,0.3V639C-21.4,638.9-21,639-20.8,639z"/>
</g>
<g id="XMLID_2451_">
	<g id="XMLID_2455_">
		<path id="XMLID_2457_" d="M139.4,622.3l3.2-6.5c9.7,0,12.7,3.2,10.6,13.1l-4.2,19.9c-3.6,0.6-7.4,0.7-11.8,0.7
			c-7.3,0-12.7-2.6-11-10.9l1.3-6.3c1.4-6.6,7.4-8.2,10.5-8.2c2.1,0,2.8,0.3,4.1,1C142.5,624.1,141.8,622.9,139.4,622.3z
			 M140.2,634.8c-0.1-0.1-0.6-0.3-1.1-0.3c-0.3,0-0.6,0.1-0.7,0.7l-0.6,2.8c-0.1,0.3,0,0.8,0.7,0.8c0.3,0,0.9,0,0.9,0L140.2,634.8
			L140.2,634.8z"/>
		<path id="XMLID_2456_" d="M207.3,627.5c-0.9-0.4-2.1-0.8-3.3-0.8c-1.7,0-2.9,0.7-3.4,3l-1.2,5.7c-0.5,2.3,0.4,3.3,2.1,3.3
			c1.8,0,3.9-0.4,3.8-0.4l0,10.2c-2.9,0.7-5.8,1.1-8.7,1.1c-7.3-0.3-11.6-3.7-9.8-12.1l2-9.5c1.7-7.8,7.2-12.4,14.9-12.4
			c2.8,0.1,5.5,0.9,7.9,2.1L207.3,627.5z"/>
	</g>
	<path id="XMLID_2452_" d="M173.2,617.1c0.6-0.3,3.5-1.3,5.5-1.3c4.4,0,7.1,3.1,5.7,9.7c0-0.1-2.8,13.3-2.8,13.2
		c-2.2,8.5-8.4,10.9-15.7,10.9c-3.8,0-7.4-0.6-11.3-0.7l9.7-45.4h11.8C176.1,603.5,173.2,617.1,173.2,617.1z M169.2,639
		c1,0,1.2-0.5,1.4-1.2c0-0.2,2.1-9.7,2.1-10c0.1-0.6-0.3-0.7-0.6-0.7c-0.5,0-1,0.3-1.1,0.3l-2.5,11.6C168.6,638.9,169,639,169.2,639
		z"/>
</g>
<g id="XMLID_2438_">
	<g id="XMLID_2465_">
		<path id="XMLID_2467_" d="M315.3,623.6l1.9-6.5c11.9,0,16.4,3.2,16.4,13.1v19.9c-4.4,0.6-8.9,0.7-14.2,0.7
			c-9,0-16.2-2.6-16.2-10.9v-6.3c0-6.6,6.9-8.2,10.7-8.2c2.6,0,4.8,0.6,7.3,1.6C321.3,625.4,319.6,624.2,315.3,623.6z M321.1,636.8
			c-0.4-0.1-2.3-0.8-3.9-0.8c-1.1,0-2,0.2-2,1.1v1.2c0,0.9,0.4,1.9,3,1.9c1.2,0,3-0.1,3-0.1V636.8L321.1,636.8z"/>
		<path id="XMLID_2466_" d="M399.8,628.7c-1.7-0.4-3.9-0.8-5.9-0.8c-2.9,0-4.7,0.7-4.7,3v5.7c0,2.3,1.9,3.3,4.8,3.3
			c3,0,6.4-0.4,6.4-0.4l2.4,10.2c-3.4,0.7-6.8,1.1-10.3,1.1c-9.1-0.3-15.1-3.7-15.1-12.1v-9.5c0-7.8,5.6-12.4,15.1-12.4
			c3.5,0.1,7.1,0.9,10.2,2.1L399.8,628.7z"/>
	</g>
	<path id="XMLID_2461_" d="M352.9,618.7c2.2-1.2,5.2-1.7,7.7-1.7c4,0,10.2,3.1,10.2,9.7c0-0.1,0,13.3,0,13.2
		c-0.5,8.5-7.4,10.9-16.4,10.9c-4.6,0-9.3-0.6-14-0.7v-45.4h12.4L352.9,618.7L352.9,618.7z M354.6,640.3c2.8,0,3.2-1.1,3.2-2.9
		c0-0.6,0-6.1,0-6.9c0-1.7-1.2-2.2-2.1-2.2c-1.5,0-2.6,0.8-2.9,1c0-0.1,0,10.9,0,10.9C352.9,640.2,354.2,640.3,354.6,640.3z"/>
</g>
<g id="XMLID_2472_">
	<path id="XMLID_2479_" d="M316.6,507.9l0.7-4.9c11.9,0,16.4,3.2,16.4,13.1v19.9c-4.4,0.6-8.9,0.7-14.2,0.7c-9,0-16.2-2.6-16.2-10.9
		v-6.3c0-6.6,5-9.6,10.7-9.6c3.9,0,9.4,1.3,12.1,3.2C326.1,509.9,323.6,507.9,316.6,507.9z M326.1,519.7c-1-0.5-5.9-2.3-10.2-2.3
		c-2.8,0-5.1,0.7-5.1,3.2v4.2c0,3.2,1.1,5.4,9.6,5.4c1.5,0,5.8-0.3,5.7-0.3V519.7z"/>
	<path id="XMLID_2474_" d="M347.9,504.7c3.9-1.2,7.5-1.7,11.1-1.7c5.9,0,11.8,3.4,11.8,10.5c0-0.1,0,12.5,0,12.4
		c-0.5,8.5-7.4,10.9-16.4,10.9c-4.6,0-9.3-0.6-14-0.7v-45.4h7.5L347.9,504.7L347.9,504.7z M353.5,530.1c8.8,0,10-2.2,10-6.1
		c0-1.2,0-6.4,0-8.8c0-4.9-4-5.1-6.4-5.1c-3.7,0-8.2,1.5-9.1,1.9c0-0.1,0,18,0,17.9C347.9,529.9,352,530.1,353.5,530.1z"/>
	<path id="XMLID_2473_" d="M400.5,510.6c-1.9-0.8-4.6-1.4-7.1-1.5c-4.9,0-8.9,1.2-8.9,5.5v10.2c0,4,3.7,5.9,9,5.9
		c3.7,0,7.6-0.7,7.5-0.7l1.6,5.8c-3.4,0.7-6.8,1.1-10.3,1.1c-9.1-0.3-15.1-3.7-15.1-12.1v-9.4c0-7.8,5.6-12.4,15.1-12.4
		c3.5,0.1,7.1,0.9,10.2,2.1L400.5,510.6z"/>
</g>
<g id="XMLID_2518_">
	<path id="XMLID_2526_" d="M508.6,277.1l0.3-1.2c8.8,0,15.9,2,13.9,11.2l-4.6,21.8c0.2,0-11.3,0.6-14.2,0.6
		c-11.4,0-15.3-3.9-13.6-11.6l1.1-5.4c0.9-4.1,4.2-9.9,14.8-9.9c5.7,0,11.1,1.8,15.5,3.7C523.4,279.1,516.2,277.1,508.6,277.1z
		 M521.6,287.8c-5.1-2.7-10.2-4-15.9-4c-8.2,0-12,4.1-13,8.9l-1.2,5.7c-1,4.8,0.5,10,12.9,10c3.5,0,13.3-0.6,13.1-0.6L521.6,287.8z"
		/>
	<path id="XMLID_2523_" d="M532.6,278.3c4.4-1.5,9.7-2.5,15.5-2.5c10.6,0,12.7,5.7,11.9,9.8c0-0.1-2.6,12.4-2.6,12.3
		c-1.6,7.7-7,11.7-18.6,11.7c-2.9,0-14.2-0.6-14-0.6l9.7-45.5h1.3L532.6,278.3L532.6,278.3z M539,308.4c8.6,0,15.3-2.4,16.9-10
		c0.2-1.2,2.4-11.1,2.7-12.5c1-4.9-2.5-8.9-10.7-8.9c-5.8,0-10.9,1.1-15.6,2.6c0-0.1-6,28.2-6,28.1
		C526.2,307.7,535.5,308.4,539,308.4z"/>
	<path id="XMLID_2519_" d="M591.9,279c-2.6-1.2-6.2-1.9-9.8-1.9c-8.3,0-13.9,3.8-15.6,11.5l-1.9,9c-1.7,7.9,3.6,10.9,11.9,10.9
		c5.1,0,9.7-1,9.7-1l0.1,1.2c-3.5,0.8-6.8,1-10.2,1c-9.2-0.1-14.5-3.5-12.8-12l1.9-9.1c1.6-7.9,7.7-12.7,17.5-12.7
		c3.5,0,7,0.8,9.9,2.1L591.9,279z"/>
</g>
<g id="XMLID_2504_">
	<path id="XMLID_2513_" d="M507.8,391.7l0.8-2.8c12.6,0,15.4,3.7,13.2,14.4l-4,18.8c0.2,0-8.6,0.6-12.5,0.7
		c-10.1,0-17.3-1.8-15.2-11.7l1.2-5.4c1.6-7.3,7.9-9.8,14.1-9.8c5.1,0,10.3,1.7,13.6,3.5C520.3,392.8,514.1,391.7,507.8,391.7z
		 M518.3,402.3c-3.9-1.8-9.1-3.4-14-3.4c-2.7,0-8.3,0.9-9.5,6.8l-1,4.8c-1.5,6.9,1.1,9.1,10.3,9.1c4.4,0,10.8-0.7,10.7-0.6
		L518.3,402.3z"/>
	<path id="XMLID_2510_" d="M534.8,391.2c3.8-1.3,8.5-2.4,13.7-2.4c6.3,0,12.5,2.5,10.9,9.8c-0.9,4.1-1.8,8.3-2.6,12.4
		c-2.1,9.8-10.1,11.7-20.2,11.7c-3.7-0.1-12.4-0.7-12.2-0.7l9.7-45.7h3.9L534.8,391.2z M537.9,419.6c8.8,0,13.7-1.8,15.4-9
		c0.2-1.1,2.2-10.4,2.5-11.7c1.3-6.1-4.2-7-7.1-7c-5.2,0-9.8,1.1-14.5,2.6c-1.7,8.2-3.5,16.3-5.2,24.6
		C528.9,419,532.7,419.3,537.9,419.6z"/>
	<path id="XMLID_2508_" d="M591.2,393.8c-2.6-1-6.3-1.6-9.6-1.7c-7.9,0-11.9,4-13.1,9.7l-1.8,8.2c-1.8,8.2,2.6,9.5,9.5,9.5
		c5,0,10.4-1,10.2-0.9l0.2,3.3c-3.6,0.7-7.3,1-10.9,1c-9.3-0.1-14.6-3.8-12.9-12.1l2-9.5c1.6-7.4,7.7-12.5,17.7-12.5
		c3.7,0,7.3,0.8,10.4,2.1L591.2,393.8z"/>
</g>
<g id="XMLID_2476_">
	<g id="XMLID_2499_">
		<path id="XMLID_2501_" d="M505.2,623.6l3.3-6.5c11.9,0,15.7,3.2,13.6,13.1l-4.2,19.9c-4.5,0.6-9.1,0.7-14.3,0.7
			c-9,0-15.7-2.6-13.9-10.9l1.3-6.3c1.4-6.6,8.7-8.2,12.5-8.2c2.6,0,4.7,0.6,7,1.6C510.7,625.4,509.3,624.2,505.2,623.6z
			 M508.2,636.8c-0.4-0.1-2.1-0.8-3.8-0.8c-1.1,0-2,0.2-2.2,1.1l-0.2,1.2c-0.2,0.9,0,1.9,2.6,1.9c1.2,0,3-0.1,3-0.1L508.2,636.8
			L508.2,636.8z"/>
		<path id="XMLID_2500_" d="M588.5,628.7c-1.6-0.4-3.7-0.8-5.7-0.8c-2.9,0-4.8,0.7-5.3,3l-1.2,5.7c-0.5,2.3,1.2,3.3,4.1,3.3
			c3,0,6.5-0.4,6.4-0.4l0.2,10.2c-3.5,0.7-7,1.1-10.5,1.1c-9-0.3-14.4-3.7-12.6-12.1l2-9.5c1.7-7.8,8.2-12.4,17.7-12.4
			c3.4,0.1,6.9,0.9,9.8,2.1L588.5,628.7z"/>
	</g>
	<path id="XMLID_2483_" d="M543.7,618.7c2.5-1.2,5.5-1.7,8-1.7c4,0,9.6,3.1,8.2,9.7c0-0.1-2.8,13.3-2.8,13.2
		c-2.3,8.5-9.7,10.9-18.7,10.9c-4.6,0-9.1-0.6-13.8-0.7l9.7-45.4h12.4L543.7,618.7L543.7,618.7z M541,640.3c2.8,0,3.5-1.1,3.9-2.9
		c0.1-0.6,1.3-6.1,1.5-6.9c0.4-1.7-0.7-2.2-1.7-2.2c-1.5,0-2.8,0.8-3.1,1c0-0.1-2.3,10.9-2.3,10.9S540.5,640.3,541,640.3z"/>
</g>
<g id="XMLID_1875_">
	<path id="XMLID_2463_" d="M506.8,507.9l1.7-4.9c11.9,0,15.7,3.2,13.6,13.1l-4.2,19.9c-4.5,0.6-9.1,0.7-14.3,0.7
		c-9,0-15.7-2.6-13.9-10.9l1.3-6.3c1.4-6.6,7-9.6,12.8-9.6c3.9,0,9.1,1.3,11.4,3.2C515.9,509.9,513.8,507.9,506.8,507.9z
		 M513.8,519.7c-0.9-0.5-5.4-2.3-9.7-2.3c-2.8,0-5.3,0.7-5.8,3.2l-0.9,4.2c-0.7,3.2,0,5.4,8.5,5.4c1.5,0,5.9-0.3,5.7-0.3
		L513.8,519.7z"/>
	<path id="XMLID_1880_" d="M538.8,504.7c4.2-1.2,7.8-1.7,11.5-1.7c5.9,0,11,3.4,9.5,10.5c0-0.1-2.7,12.5-2.6,12.4
		c-2.3,8.5-9.7,10.9-18.7,10.9c-4.6,0-9.1-0.6-13.8-0.7l9.7-45.4h7.5L538.8,504.7L538.8,504.7z M539,530.1c8.8,0,10.4-2.2,11.2-6.1
		c0.3-1.2,1.4-6.4,1.9-8.8c1-4.9-2.9-5.1-5.3-5.1c-3.7,0-8.5,1.5-9.5,1.9c0-0.1-3.8,18-3.8,17.9C533.5,529.9,537.5,530.1,539,530.1z
		"/>
	<path id="XMLID_1878_" d="M590.2,510.6c-1.7-0.8-4.3-1.4-6.8-1.5c-4.9,0-9.2,1.2-10.1,5.5l-2.2,10.2c-0.9,4,2.4,5.9,7.7,5.9
		c3.7,0,7.8-0.7,7.7-0.7l0.4,5.8c-3.5,0.7-7,1.1-10.5,1.1c-9-0.3-14.4-3.7-12.6-12.1l2-9.4c1.7-7.8,8.2-12.4,17.7-12.4
		c3.4,0.1,6.9,0.9,9.8,2.1L590.2,510.6z"/>
</g>
<g id="XMLID_1825_">
	<path id="XMLID_1867_" class="st5" d="M62.8,664.8H44.3c-0.6,0-1,0.4-1,1v10.7c0,0.6,0.4,1,1,1h18.5c0.6,0,1-0.4,1-1v-10.7
		C63.8,665.2,63.3,664.8,62.8,664.8z"/>
	<text id="XMLID_1827_" transform="matrix(1 0 0 1 46.7592 673.5403)" class="st6 st7 st8">NEW</text>
</g>
<g id="XMLID_1836_">
	<path id="XMLID_1884_" class="st5" d="M249.4,664.8h-18.5c-0.6,0-1,0.4-1,1v10.7c0,0.6,0.4,1,1,1h18.5c0.6,0,1-0.4,1-1v-10.7
		C250.4,665.2,250,664.8,249.4,664.8z"/>
	<text id="XMLID_1873_" transform="matrix(1 0 0 1 233.3803 673.5403)" class="st6 st7 st8">NEW</text>
</g>
<g id="XMLID_1886_">
	<path id="XMLID_1892_" class="st5" d="M437.7,664.8h-18.5c-0.6,0-1,0.4-1,1v10.7c0,0.6,0.4,1,1,1h18.5c0.6,0,1-0.4,1-1v-10.7
		C438.7,665.2,438.3,664.8,437.7,664.8z"/>
	<text id="XMLID_1889_" transform="matrix(1 0 0 1 421.6733 673.5403)" class="st6 st7 st8">NEW</text>
</g>
<g id="XMLID_1894_">
	<path id="XMLID_2537_" class="st5" d="M437.7,550.6h-18.5c-0.6,0-1,0.4-1,1v10.7c0,0.6,0.4,1,1,1h18.5c0.6,0,1-0.4,1-1v-10.7
		C438.7,551,438.3,550.6,437.7,550.6z"/>
	<text id="XMLID_1898_" transform="matrix(1 0 0 1 421.6733 559.3245)" class="st6 st7 st8">NEW</text>
</g>
<g id="XMLID_2541_">
	<path id="XMLID_2543_" class="st5" d="M437.7,436.5h-18.5c-0.6,0-1,0.4-1,1v10.7c0,0.6,0.4,1,1,1h18.5c0.6,0,1-0.4,1-1v-10.7
		C438.7,436.9,438.3,436.5,437.7,436.5z"/>
	<text id="XMLID_2542_" transform="matrix(1 0 0 1 421.6733 445.2336)" class="st6 st7 st8">NEW</text>
</g>
<g id="XMLID_2547_">
	<path id="XMLID_2550_" class="st5" d="M437.7,323.4h-18.5c-0.6,0-1,0.4-1,1v10.7c0,0.6,0.4,1,1,1h18.5c0.6,0,1-0.4,1-1v-10.7
		C438.7,323.8,438.3,323.4,437.7,323.4z"/>
	<text id="XMLID_2549_" transform="matrix(1 0 0 1 421.6733 332.1917)" class="st6 st7 st8">NEW</text>
</g>
<g id="XMLID_2560_">
	<path id="XMLID_2563_" class="st5" d="M625.4,664.8h-18.5c-0.6,0-1,0.4-1,1v10.7c0,0.6,0.4,1,1,1h18.5c0.6,0,1-0.4,1-1v-10.7
		C626.4,665.2,625.9,664.8,625.4,664.8z"/>
	<text id="XMLID_2562_" transform="matrix(1 0 0 1 609.3609 673.5403)" class="st6 st7 st8">NEW</text>
</g>
<g id="XMLID_2556_">
	<path id="XMLID_2559_" class="st5" d="M625.4,436.5h-18.5c-0.6,0-1,0.4-1,1v10.7c0,0.6,0.4,1,1,1h18.5c0.6,0,1-0.4,1-1v-10.7
		C626.4,436.9,625.9,436.5,625.4,436.5z"/>
	<text id="XMLID_2557_" transform="matrix(1 0 0 1 609.3609 445.2336)" class="st6 st7 st8">NEW</text>
</g>
<g id="XMLID_2564_">
	<path id="XMLID_2566_" class="st5" d="M625.4,550.6h-18.5c-0.6,0-1,0.4-1,1v10.7c0,0.6,0.4,1,1,1h18.5c0.6,0,1-0.4,1-1v-10.7
		C626.4,551,625.9,550.6,625.4,550.6z"/>
	<text id="XMLID_2565_" transform="matrix(1 0 0 1 609.3609 559.3245)" class="st6 st7 st8">NEW</text>
</g>
<g id="XMLID_2552_">
	<path id="XMLID_2555_" class="st5" d="M625.4,323.4h-18.5c-0.6,0-1,0.4-1,1v10.7c0,0.6,0.4,1,1,1h18.5c0.6,0,1-0.4,1-1v-10.7
		C626.4,323.8,625.9,323.4,625.4,323.4z"/>
	<text id="XMLID_2553_" transform="matrix(1 0 0 1 609.3609 332.1917)" class="st6 st7 st8">NEW</text>
</g>
</svg>
