<?xml version="1.0" encoding="utf-8"?>
<!-- Generator: Adobe Illustrator 19.0.0, SVG Export Plug-In . SVG Version: 6.00 Build 0)  -->
<svg version="1.1" id="Layer_1" xmlns="http://www.w3.org/2000/svg" xmlns:xlink="http://www.w3.org/1999/xlink" x="0px" y="0px"
	 width="424px" height="377px" viewBox="0 0 424 377" style="enable-background:new 0 0 424 377;" xml:space="preserve">
<style type="text/css">
	.st0{font-family:monospace;}
	.st1{font-size:12px;}
	.st2{fill:none;stroke:#000000;stroke-width:0.25;stroke-miterlimit:10;}
</style>
<g id="XMLID_100_">
	<g id="XMLID_3_">
		<path id="XMLID_12_" d="M100.9,295.4l0.1-1.7c10.6,0,19.5,2.9,19.5,16.2v31.5c0.3,0-13.3,0.9-16.9,0.9c-13.6,0-19.2-5.6-19.2-16.8
			v-7.8c0-6,2.5-14.3,15.2-14.3c6.9,0,13.5,2.6,19.1,5.4C118.7,298.3,109.9,295.4,100.9,295.4z M118.7,311.2
			c-6.7-3.5-12.4-5.8-19.2-5.8c-9.8,0-13.4,5.7-13.4,12.7v8.2c0,6.9,2.8,14.5,17.5,14.5c4.1,0,15.4-0.9,15.1-0.9V311.2z"/>
		<path id="XMLID_15_" d="M130,297.2c4.8-2.1,10.7-3.6,17.6-3.6c12.7,0,16.7,8.3,16.7,14.2c0-0.2,0,17.9,0,17.8
			c0,11.2-5.3,16.9-19.2,16.9c-3.5,0-17.2-0.9-16.9-0.9v-65.8h1.8V297.2z M145.1,340.8c10.2,0,17.5-3.5,17.5-14.5
			c0-1.7,0-16.1,0-18.1c0-7.1-5.1-12.9-14.8-12.9c-6.9,0-12.7,1.6-17.7,3.8c0-0.1,0,40.8,0,40.7
			C129.9,339.7,140.9,340.7,145.1,340.8z"/>
		<path id="XMLID_18_" d="M200.8,298.4c-3.8-2-7.8-3-12.2-3c-9.9,0-15.4,6.4-15.4,16.6v13c0,11.4,6.8,15.7,16.7,15.7
			c6.1,0,11.4-1.5,11.4-1.5l0.4,1.9c-3.9,1.1-7.9,1.5-11.9,1.5c-11-0.2-18.2-5.1-18.3-17.4V312c-0.1-11.4,6-18.4,17.6-18.4
			c4.2,0,8.5,1.1,12.4,3L200.8,298.4z"/>
	</g>
	<g id="XMLID_2_">
		<path id="XMLID_4_" d="M261.2,295.2l0.1-1.7c12.8,0,23.6,2.9,23.6,16.2v31.5c0.3,0-16.1,0.9-20.4,0.9c-16.5,0-23.3-5.6-23.3-16.8
			v-7.8c0-6,3.1-14.3,18.4-14.3c8.3,0,16.6,2.6,23.6,5.4C283.2,298.1,272.1,295.2,261.2,295.2z M283.2,310.9
			c-8.2-3.5-15.4-5.8-23.7-5.8c-11.8,0-16.7,5.7-16.7,12.7v8.2c0,6.9,3.8,14.5,21.7,14.5c5,0,19.1-0.9,18.7-0.9V310.9z"/>
		<path id="XMLID_7_" d="M296.2,297c5.9-2.1,13.2-3.6,21.6-3.6c15.3,0,20.2,8.3,20.2,14.2c0-0.2,0,17.9,0,17.8
			c0,11.2-6.5,16.9-23.3,16.9c-4.2,0-20.8-0.9-20.4-0.9v-65.8h1.9V297z M314.8,340.6c12.4,0,21.4-3.5,21.4-14.5c0-1.7,0-16.1,0-18.1
			c0-7.1-6.4-12.9-18.2-12.9c-8.4,0-15.5,1.6-21.8,3.8c0-0.1,0,40.8,0,40.7C296,339.5,309.7,340.5,314.8,340.6z"/>
		<path id="XMLID_10_" d="M382.3,298c-4.2-1.8-9.5-2.8-14.8-2.8c-12,0-19,5.5-19,16.6v13c0,11.4,8.6,15.8,20.6,15.8
			c7.4,0,13.7-1.5,13.7-1.5l0.5,1.7c-4.8,1.1-9.5,1.5-14.4,1.5c-13.3-0.2-22-5.1-22.2-17.4v-13.1c-0.1-11.4,7.3-18.4,21.4-18.4
			c5.1,0,10.3,1.1,15,3L382.3,298z"/>
	</g>
	<g id="XMLID_21_">
		<path id="XMLID_54_" d="M100.6,103.2l0.8-7.1c14.2,0,19.5,4.6,19.5,19V144c-5.2,0.8-10.6,1-16.9,1c-10.7,0-19.3-3.7-19.3-15.7
			v-9.1c0-9.6,5.9-13.9,12.8-13.9c4.7,0,10.4,2.2,13.1,6.2C110.6,105.4,107.7,103.2,100.6,103.2z M110.6,120.2
			c-1-0.7-5.9-3.3-10.2-3.3c-2.8,0-5.2,1-5.2,4.6v6.1c0,4.7,1.1,7.8,9.7,7.8c1.5,0,5.8-0.4,5.7-0.4V120.2z"/>
		<path id="XMLID_57_" d="M139.3,98.5c3.9-1.7,7.4-2.4,11.7-2.4c7,0,14,4.5,14,14.1c0-0.2,0,19.2,0,19.1
			c-0.6,12.3-8.8,15.7-19.5,15.7c-5.5,0-11-0.8-16.6-1V78.3h10.4V98.5z M144.9,135.3c8.7,0,9.9-3,9.9-7.8c0-1.5,0-14.3,0-16
			c0-3.6-3.7-4.6-6.5-4.6c-4.4,0-8,1.6-8.9,2.3c0-0.1,0,26,0,25.9C139.3,135.1,143.4,135.3,144.9,135.3z"/>
		<path id="XMLID_60_" d="M200.4,107.1c-2.3-1.1-5.1-2-7.8-2.2c-5.3,0-9.7,1.8-9.7,7.9v14.7c0,5.8,3.9,8.5,9.8,8.5c4,0,8.4-1,8.4-1
			l1.9,8.4c-4,1-8.1,1.6-12.3,1.6c-10.8-0.4-18-5.3-18-17.5v-13.7c0-11.3,6.7-18,17.9-18c4.1,0.1,8.4,1.3,12.2,3.1L200.4,107.1z"/>
	</g>
	<g id="XMLID_30_">
		<path id="XMLID_20_" d="M260.5,103.1l1-7.1c17.2,0,23.7,4.6,23.7,19v28.8c-6.3,0.8-12.9,1-20.5,1c-13,0-23.5-3.7-23.5-15.7v-9.1
			c0-9.6,7.2-13.9,15.5-13.9c5.7,0,13.6,1.9,17.5,4.6C274.2,106,270.7,103.1,260.5,103.1z M274.2,120.1c-1.5-0.7-8.5-3.3-14.7-3.3
			c-4,0-7.4,1-7.4,4.6v6.1c0,4.7,1.6,7.8,13.9,7.8c2.2,0,8.4-0.4,8.2-0.4V120.1z"/>
		<path id="XMLID_25_" d="M305.8,98.4c5.7-1.7,10.8-2.4,16.1-2.4c8.6,0,17,4.9,17,15.2c0-0.2,0,18.1,0,18
			c-0.7,12.3-10.7,15.7-23.7,15.7c-6.7,0-13.4-0.8-20.2-1V78.2h10.9V98.4z M313.9,135.2c12.7,0,14.4-3.2,14.4-8.8
			c0-1.8,0-9.2,0-12.7c0-7.1-5.8-7.4-9.3-7.4c-5.4,0-11.8,2.1-13.2,2.7c0-0.1,0,26,0,25.9C305.8,134.9,311.7,135.2,313.9,135.2z"/>
		<path id="XMLID_28_" d="M381.9,107c-2.7-1.1-6.6-2-10.3-2.2c-7.1,0-12.9,1.8-12.9,7.9v14.7c0,5.8,5.3,8.5,13,8.5
			c5.4,0,11-1,10.9-1l2.3,8.4c-4.9,1-9.8,1.6-14.9,1.6c-13.1-0.4-21.9-5.3-21.9-17.5v-13.7c0-11.3,8.1-18,21.8-18
			c5,0.1,10.2,1.3,14.8,3.1L381.9,107z"/>
	</g>
	<g id="XMLID_41_">
		<g id="XMLID_31_">
			<path id="XMLID_37_" d="M258.8,204.4l2.8-9.4c17.2,0,23.7,4.6,23.7,19v28.8c-6.3,0.8-12.9,1-20.5,1c-13,0-23.5-3.7-23.5-15.7
				v-9.1c0-9.6,10-11.9,15.5-11.9c3.8,0,7,0.8,10.6,2.3C267.4,207,264.9,205.3,258.8,204.4z M267.2,223.5c-0.6-0.2-3.3-1.2-5.7-1.2
				c-1.6,0-2.9,0.3-2.9,1.6v1.7c0,1.3,0.6,2.8,4.3,2.8c1.7,0,4.3-0.1,4.3-0.1V223.5z"/>
			<path id="XMLID_32_" d="M380.9,211.9c-2.5-0.6-5.6-1.2-8.5-1.2c-4.2,0-6.8,1-6.8,4.4v8.3c0,3.3,2.7,4.8,6.9,4.8
				c4.4,0,9.3-0.6,9.2-0.6l3.4,14.8c-4.9,1-9.8,1.6-14.9,1.6c-13.1-0.4-21.9-5.3-21.9-17.5v-13.7c0-11.3,8.1-18,21.8-18
				c5,0.1,10.2,1.3,14.8,3.1L380.9,211.9z"/>
		</g>
		<path id="XMLID_34_" d="M313,197.4c3.2-1.7,7.5-2.4,11.1-2.4c5.8,0,14.8,4.5,14.8,14.1c0-0.2,0,19.2,0,19.1
			c-0.7,12.3-10.7,15.7-23.7,15.7c-6.7,0-13.4-0.8-20.2-1v-65.7h18V197.4z M315.6,228.6c4.1,0,4.7-1.6,4.7-4.2c0-0.8,0-8.8,0-10
			c0-2.4-1.7-3.2-3.1-3.2c-2.1,0-3.8,1.1-4.2,1.5c0-0.1,0,15.7,0,15.7C313,228.4,314.9,228.6,315.6,228.6z"/>
	</g>
	<g id="XMLID_40_">
		<g id="XMLID_45_">
			<path id="XMLID_48_" d="M98.9,204.4l2.7-9.4c14.1,0,19.4,4.6,19.4,19v28.8c-5.1,0.8-10.5,1-16.8,1c-10.6,0-19.2-3.7-19.2-15.7
				v-9.1c0-9.6,8.2-11.9,12.7-11.9c3.1,0,4.2,0.5,6.3,1.4C104,207.1,102.5,205.3,98.9,204.4z M104,222.6c-0.2-0.1-1-0.4-1.7-0.4
				c-0.5,0-0.8,0.2-0.8,1v4c0,0.5,0.2,1.1,1.3,1.1c0.5,0,1.3,0,1.3,0V222.6z"/>
			<path id="XMLID_46_" d="M198.8,211.9c-1.5-0.6-3.3-1.2-5-1.2c-2.5,0-4,1-4,4.4v8.3c0,3.3,1.6,4.8,4.1,4.8c2.6,0,5.5-0.6,5.4-0.6
				l3.2,14.8c-4,1-8,1.6-12.2,1.6c-10.7-0.4-17.9-5.3-17.9-17.5v-13.7c0-11.3,6.6-18,17.8-18c4.1,0.1,8.3,1.3,12.1,3.1L198.8,211.9z
				"/>
		</g>
		<path id="XMLID_42_" d="M146.2,196.9c0.8-0.5,4.7-1.9,7.6-1.9c6.4,0,11.2,4.5,11.2,14.1c0-0.2,0,19.2,0,19.1
			c-0.6,12.3-8.8,15.7-19.4,15.7c-5.5,0-10.9-0.8-16.5-1v-65.7h17.1V196.9z M147.1,228.6c1.4,0,1.6-0.7,1.6-1.8c0-0.3,0-14.1,0-14.5
			c0-0.8-0.6-1-1.1-1c-0.7,0-1.3,0.4-1.5,0.5c0,0,0,16.8,0,16.8C146.2,228.5,146.9,228.6,147.1,228.6z"/>
	</g>
	<text id="XMLID_52_" transform="matrix(1 0 0 1 80.5032 43.5002)" class="st0 st1">nm</text>
	<text id="XMLID_53_" transform="matrix(1 0 0 1 235.1089 43.5002)" class="st0 st1">wd</text>
	<g id="XMLID_65_">
		<text id="XMLID_22_" transform="matrix(1 0 0 1 35.6668 142.8335)" class="st0 st1">bld</text>
		<line id="XMLID_62_" class="st2" x1="23.3" y1="155.5" x2="400.7" y2="155.5"/>
	</g>
	<g id="XMLID_66_">
		<text id="XMLID_1_" transform="matrix(1 0 0 1 35.6668 242.1668)" class="st0 st1">blk</text>
		<line id="XMLID_63_" class="st2" x1="23.3" y1="254.5" x2="400.7" y2="254.5"/>
	</g>
	<g id="XMLID_67_">
		<text id="XMLID_51_" transform="matrix(1 0 0 1 35.6668 340.1668)" class="st0 st1">thn</text>
		<line id="XMLID_64_" class="st2" x1="23.3" y1="353.5" x2="400.7" y2="353.5"/>
		<line id="XMLID_69_" class="st2" x1="23.3" y1="55.5" x2="400.7" y2="55.5"/>
		<line id="XMLID_74_" class="st2" x1="23.3" y1="23.5" x2="400.7" y2="23.5"/>
	</g>
	<line id="XMLID_68_" class="st2" x1="222.7" y1="23.5" x2="222.7" y2="353.5"/>
	<line id="XMLID_71_" class="st2" x1="400.7" y1="23.5" x2="400.7" y2="353.5"/>
	<line id="XMLID_70_" class="st2" x1="68" y1="23.5" x2="68" y2="353.5"/>
	<line id="XMLID_72_" class="st2" x1="23.3" y1="23.5" x2="23.3" y2="353.5"/>
</g>
</svg>
