<?xml version="1.0" encoding="utf-8"?>
<!-- Generator: Adobe Illustrator 19.0.0, SVG Export Plug-In . SVG Version: 6.00 Build 0)  -->
<svg version="1.1" id="Layer_1" xmlns="http://www.w3.org/2000/svg" xmlns:xlink="http://www.w3.org/1999/xlink" x="0px" y="0px"
	 width="378.3px" height="331px" viewBox="0 0 378.3 331" style="enable-background:new 0 0 378.3 331;" xml:space="preserve">
<style type="text/css">
	.st0{font-family:monospace;}
	.st1{font-size:12px;}
	.st2{fill:none;stroke:#000000;stroke-width:0.25;stroke-miterlimit:10;}
	.st3{fill:#54AF25;}
	.st4{fill:#FFFFFF;}
</style>
<g id="XMLID_100_">
	<g id="XMLID_3_">
		<path id="XMLID_12_" d="M78.5,272.9l0.1-1.7c10.6,0,19.5,2.9,19.5,16.2V319c0.3,0-13.3,0.9-16.9,0.9c-13.6,0-19.2-5.6-19.2-16.8
			v-7.8c0-6,2.5-14.3,15.2-14.3c6.9,0,13.5,2.6,19.1,5.4C96.4,275.8,87.5,272.9,78.5,272.9z M96.4,288.7c-6.7-3.5-12.4-5.8-19.2-5.8
			c-9.8,0-13.4,5.7-13.4,12.7v8.2c0,6.9,2.8,14.5,17.5,14.5c4.1,0,15.4-0.9,15.1-0.9V288.7z"/>
		<path id="XMLID_15_" d="M107.7,274.7c4.8-2.1,10.7-3.6,17.6-3.6c12.7,0,16.7,8.3,16.7,14.2c0-0.2,0,17.9,0,17.8
			c0,11.2-5.3,16.9-19.2,16.9c-3.5,0-17.2-0.9-16.9-0.9v-65.8h1.8V274.7z M122.8,318.3c10.2,0,17.5-3.5,17.5-14.5
			c0-1.7,0-16.1,0-18.1c0-7.1-5.1-12.9-14.8-12.9c-6.9,0-12.7,1.6-17.7,3.8c0-0.1,0,40.8,0,40.7
			C107.5,317.2,118.6,318.2,122.8,318.3z"/>
		<path id="XMLID_18_" d="M178.5,275.9c-3.8-2-7.8-3-12.2-3c-9.9,0-15.4,6.4-15.4,16.6v13c0,11.4,6.8,15.7,16.7,15.7
			c6.1,0,11.4-1.5,11.4-1.5l0.4,1.9c-3.9,1.1-7.9,1.5-11.9,1.5c-11-0.2-18.2-5.1-18.3-17.4v-13.1c-0.1-11.4,6-18.4,17.6-18.4
			c4.2,0,8.5,1.1,12.4,3L178.5,275.9z"/>
	</g>
	<g id="XMLID_2_">
		<path id="XMLID_4_" d="M238.9,272.7l0.1-1.7c12.8,0,23.6,2.9,23.6,16.2v31.5c0.3,0-16.1,0.9-20.4,0.9c-16.5,0-23.3-5.6-23.3-16.8
			v-7.8c0-6,3.1-14.3,18.4-14.3c8.3,0,16.6,2.6,23.6,5.4C260.9,275.6,249.8,272.7,238.9,272.7z M260.9,288.4
			c-8.2-3.5-15.4-5.8-23.7-5.8c-11.8,0-16.7,5.7-16.7,12.7v8.2c0,6.9,3.8,14.5,21.7,14.5c5,0,19.1-0.9,18.7-0.9V288.4z"/>
		<path id="XMLID_7_" d="M273.9,274.5c5.9-2.1,13.2-3.6,21.6-3.6c15.3,0,20.2,8.3,20.2,14.2c0-0.2,0,17.9,0,17.8
			c0,11.2-6.5,16.9-23.3,16.9c-4.2,0-20.8-0.9-20.4-0.9v-65.8h1.9V274.5z M292.5,318.1c12.4,0,21.4-3.5,21.4-14.5
			c0-1.7,0-16.1,0-18.1c0-7.1-6.4-12.9-18.2-12.9c-8.4,0-15.5,1.6-21.8,3.8c0-0.1,0,40.8,0,40.7C273.7,317,287.4,318,292.5,318.1z"
			/>
		<path id="XMLID_10_" d="M359.9,275.5c-4.2-1.8-9.5-2.8-14.8-2.8c-12,0-19,5.5-19,16.6v13c0,11.4,8.6,15.8,20.6,15.8
			c7.4,0,13.7-1.5,13.7-1.5l0.5,1.7c-4.8,1.1-9.5,1.5-14.4,1.5c-13.3-0.2-22-5.1-22.2-17.4v-13.1c-0.1-11.4,7.3-18.4,21.4-18.4
			c5.1,0,10.3,1.1,15,3L359.9,275.5z"/>
	</g>
	<g id="XMLID_21_">
		<path id="XMLID_54_" d="M78.2,80.7l0.8-7.1c14.2,0,19.5,4.6,19.5,19v28.8c-5.2,0.8-10.6,1-16.9,1c-10.7,0-19.3-3.7-19.3-15.7v-9.1
			c0-9.6,5.9-13.9,12.8-13.9c4.7,0,10.4,2.2,13.1,6.2C88.3,82.9,85.4,80.7,78.2,80.7z M88.3,97.7c-1-0.7-5.9-3.3-10.2-3.3
			c-2.8,0-5.2,1-5.2,4.6v6.1c0,4.7,1.1,7.8,9.7,7.8c1.5,0,5.8-0.4,5.7-0.4V97.7z"/>
		<path id="XMLID_57_" d="M117,76c3.9-1.7,7.4-2.4,11.7-2.4c7,0,14,4.5,14,14.1c0-0.2,0,19.2,0,19.1c-0.6,12.3-8.8,15.7-19.5,15.7
			c-5.5,0-11-0.8-16.6-1V55.8H117V76z M122.5,112.8c8.7,0,9.9-3,9.9-7.8c0-1.5,0-14.3,0-16c0-3.6-3.7-4.6-6.5-4.6
			c-4.4,0-8,1.6-8.9,2.3c0-0.1,0,26,0,25.9C117,112.6,121,112.8,122.5,112.8z"/>
		<path id="XMLID_60_" d="M178.1,84.6c-2.3-1.1-5.1-2-7.8-2.2c-5.3,0-9.7,1.8-9.7,7.9V105c0,5.8,3.9,8.5,9.8,8.5c4,0,8.4-1,8.4-1
			l1.9,8.4c-4,1-8.1,1.6-12.3,1.6c-10.8-0.4-18-5.3-18-17.5V91.4c0-11.3,6.7-18,17.9-18c4.1,0.1,8.4,1.3,12.2,3.1L178.1,84.6z"/>
	</g>
	<g id="XMLID_30_">
		<path id="XMLID_20_" d="M238.2,80.6l1-7.1c17.2,0,23.7,4.6,23.7,19v28.8c-6.3,0.8-12.9,1-20.5,1c-13,0-23.5-3.7-23.5-15.7v-9.1
			c0-9.6,7.2-13.9,15.5-13.9c5.7,0,13.6,1.9,17.5,4.6C251.9,83.5,248.3,80.6,238.2,80.6z M251.9,97.6c-1.5-0.7-8.5-3.3-14.7-3.3
			c-4,0-7.4,1-7.4,4.6v6.1c0,4.7,1.6,7.8,13.9,7.8c2.2,0,8.4-0.4,8.2-0.4V97.6z"/>
		<path id="XMLID_25_" d="M283.5,75.9c5.7-1.7,10.8-2.4,16.1-2.4c8.6,0,17,4.9,17,15.2c0-0.2,0,18.1,0,18
			c-0.7,12.3-10.7,15.7-23.7,15.7c-6.7,0-13.4-0.8-20.2-1V55.7h10.9V75.9z M291.6,112.7c12.7,0,14.4-3.2,14.4-8.8
			c0-1.8,0-9.2,0-12.7c0-7.1-5.8-7.4-9.3-7.4c-5.4,0-11.8,2.1-13.2,2.7c0-0.1,0,26,0,25.9C283.5,112.4,289.4,112.7,291.6,112.7z"/>
		<path id="XMLID_28_" d="M359.6,84.5c-2.7-1.1-6.6-2-10.3-2.2c-7.1,0-12.9,1.8-12.9,7.9v14.7c0,5.8,5.3,8.5,13,8.5
			c5.4,0,11-1,10.9-1l2.3,8.4c-4.9,1-9.8,1.6-14.9,1.6c-13.1-0.4-21.9-5.3-21.9-17.5V91.3c0-11.3,8.1-18,21.8-18
			c5,0.1,10.2,1.3,14.8,3.1L359.6,84.5z"/>
	</g>
	<g id="XMLID_41_">
		<g id="XMLID_31_">
			<path id="XMLID_37_" d="M236.4,181.9l2.8-9.4c17.2,0,23.7,4.6,23.7,19v28.8c-6.3,0.8-12.9,1-20.5,1c-13,0-23.5-3.7-23.5-15.7
				v-9.1c0-9.6,10-11.9,15.5-11.9c3.8,0,7,0.8,10.6,2.3C245,184.5,242.6,182.8,236.4,181.9z M244.8,201c-0.6-0.2-3.3-1.2-5.7-1.2
				c-1.6,0-2.9,0.3-2.9,1.6v1.7c0,1.3,0.6,2.8,4.3,2.8c1.7,0,4.3-0.1,4.3-0.1V201z"/>
			<path id="XMLID_32_" d="M358.6,189.4c-2.5-0.6-5.6-1.2-8.5-1.2c-4.2,0-6.8,1-6.8,4.4v8.3c0,3.3,2.7,4.8,6.9,4.8
				c4.4,0,9.3-0.6,9.2-0.6l3.4,14.8c-4.9,1-9.8,1.6-14.9,1.6c-13.1-0.4-21.9-5.3-21.9-17.5v-13.7c0-11.3,8.1-18,21.8-18
				c5,0.1,10.2,1.3,14.8,3.1L358.6,189.4z"/>
		</g>
		<path id="XMLID_34_" d="M290.7,174.9c3.2-1.7,7.5-2.4,11.1-2.4c5.8,0,14.8,4.5,14.8,14.1c0-0.2,0,19.2,0,19.1
			c-0.7,12.3-10.7,15.7-23.7,15.7c-6.7,0-13.4-0.8-20.2-1v-65.7h18V174.9z M293.3,206.1c4.1,0,4.7-1.6,4.7-4.2c0-0.8,0-8.8,0-10
			c0-2.4-1.7-3.2-3.1-3.2c-2.1,0-3.8,1.1-4.2,1.5c0-0.1,0,15.7,0,15.7C290.7,205.9,292.6,206.1,293.3,206.1z"/>
	</g>
	<g id="XMLID_40_">
		<g id="XMLID_45_">
			<path id="XMLID_48_" d="M76.6,181.9l2.7-9.4c14.1,0,19.4,4.6,19.4,19v28.8c-5.1,0.8-10.5,1-16.8,1c-10.6,0-19.2-3.7-19.2-15.7
				v-9.1c0-9.6,8.2-11.9,12.7-11.9c3.1,0,4.2,0.5,6.3,1.4C81.6,184.6,80.2,182.8,76.6,181.9z M81.7,200.1c-0.2-0.1-1-0.4-1.7-0.4
				c-0.5,0-0.8,0.2-0.8,1v4c0,0.5,0.2,1.1,1.3,1.1c0.5,0,1.3,0,1.3,0V200.1z"/>
			<path id="XMLID_46_" d="M176.5,189.4c-1.5-0.6-3.3-1.2-5-1.2c-2.5,0-4,1-4,4.4v8.3c0,3.3,1.6,4.8,4.1,4.8c2.6,0,5.5-0.6,5.4-0.6
				l3.2,14.8c-4,1-8,1.6-12.2,1.6c-10.7-0.4-17.9-5.3-17.9-17.5v-13.7c0-11.3,6.6-18,17.8-18c4.1,0.1,8.3,1.3,12.1,3.1L176.5,189.4z
				"/>
		</g>
		<path id="XMLID_42_" d="M123.9,174.4c0.8-0.5,4.7-1.9,7.6-1.9c6.4,0,11.2,4.5,11.2,14.1c0-0.2,0,19.2,0,19.1
			c-0.6,12.3-8.8,15.7-19.4,15.7c-5.5,0-10.9-0.8-16.5-1v-65.7h17.1V174.4z M124.8,206.1c1.4,0,1.6-0.7,1.6-1.8c0-0.3,0-14.1,0-14.5
			c0-0.8-0.6-1-1.1-1c-0.7,0-1.3,0.4-1.5,0.5c0,0,0,16.8,0,16.8C123.9,206,124.5,206.1,124.8,206.1z"/>
	</g>
	<text id="XMLID_52_" transform="matrix(1 0 0 1 58.1698 21.0002)" class="st0 st1">nm</text>
	<text id="XMLID_53_" transform="matrix(1 0 0 1 212.7755 21.0002)" class="st0 st1">wd</text>
	<g id="XMLID_65_">
		<text id="XMLID_22_" transform="matrix(1 0 0 1 13.3335 120.3335)" class="st0 st1">bld</text>
		<line id="XMLID_62_" class="st2" x1="1" y1="133" x2="378.3" y2="133"/>
	</g>
	<g id="XMLID_66_">
		<text id="XMLID_1_" transform="matrix(1 0 0 1 13.3335 219.6668)" class="st0 st1">blk</text>
		<line id="XMLID_63_" class="st2" x1="1" y1="232" x2="378.3" y2="232"/>
	</g>
	<g id="XMLID_67_">
		<text id="XMLID_51_" transform="matrix(1 0 0 1 13.3335 317.6668)" class="st0 st1">thn</text>
		<line id="XMLID_69_" class="st2" x1="1" y1="33" x2="378.3" y2="33"/>
	</g>
	<line id="XMLID_68_" class="st2" x1="200.3" y1="0" x2="200.3" y2="331"/>
	<line id="XMLID_70_" class="st2" x1="45.7" y1="0" x2="45.7" y2="331"/>
</g>
<rect id="XMLID_64_" x="1" class="st2" width="377.3" height="331"/>
<g id="XMLID_72_">
	<path id="XMLID_71_" class="st3" d="M370.8,38.3H344c-0.8,0-1.4,0.6-1.4,1.4v15.5c0,0.8,0.6,1.4,1.4,1.4h26.8
		c0.8,0,1.4-0.6,1.4-1.4V39.7C372.2,38.9,371.5,38.3,370.8,38.3z"/>
	<text id="XMLID_74_" transform="matrix(1 0 0 1 347.4792 50.9863)" class="st4 st0 st1">NEW</text>
</g>
<g id="XMLID_115_">
	<path id="XMLID_117_" class="st3" d="M370.8,138.3H344c-0.8,0-1.4,0.6-1.4,1.4v15.5c0,0.8,0.6,1.4,1.4,1.4h26.8
		c0.8,0,1.4-0.6,1.4-1.4v-15.5C372.2,138.9,371.5,138.3,370.8,138.3z"/>
	<text id="XMLID_116_" transform="matrix(1 0 0 1 347.4792 150.9863)" class="st4 st0 st1">NEW</text>
</g>
<g id="XMLID_121_">
	<path id="XMLID_123_" class="st3" d="M370.8,238.3H344c-0.8,0-1.4,0.6-1.4,1.4v15.5c0,0.8,0.6,1.4,1.4,1.4h26.8
		c0.8,0,1.4-0.6,1.4-1.4v-15.5C372.2,238.9,371.5,238.3,370.8,238.3z"/>
	<text id="XMLID_122_" transform="matrix(1 0 0 1 347.4792 250.9863)" class="st4 st0 st1">NEW</text>
</g>
<g id="XMLID_118_">
	<path id="XMLID_120_" class="st3" d="M192.7,138.3h-26.8c-0.8,0-1.4,0.6-1.4,1.4v15.5c0,0.8,0.6,1.4,1.4,1.4h26.8
		c0.8,0,1.4-0.6,1.4-1.4v-15.5C194.1,138.9,193.5,138.3,192.7,138.3z"/>
	<text id="XMLID_119_" transform="matrix(1 0 0 1 169.4099 150.9863)" class="st4 st0 st1">NEW</text>
</g>
</svg>
