<?xml version="1.0" encoding="utf-8"?>
<!-- Generator: Adobe Illustrator 19.0.0, SVG Export Plug-In . SVG Version: 6.00 Build 0)  -->
<svg version="1.1" id="Layer_1" xmlns="http://www.w3.org/2000/svg" xmlns:xlink="http://www.w3.org/1999/xlink" x="0px" y="0px"
	 viewBox="69 170.3 750.4 453.7" style="enable-background:new 69 170.3 750.4 453.7;" xml:space="preserve">
<style type="text/css">
	.st0{fill:none;stroke:#000000;stroke-width:0.25;stroke-miterlimit:10;}
	.st1{enable-background:new    ;}
	.st2{font-family:'monospace';}
	.st3{font-size:12.5385px;}
	.st4{font-size:8.2404px;}
	.st5{fill:#54AF25;}
	.st6{fill:#FFFFFF;}
	.st7{font-family:'monospace';}
	.st8{font-size:8.2944px;}
</style>
<g id="XMLID_1842_">
	<rect id="XMLID_1840_" x="69" y="170.3" class="st0" width="187.6" height="113.4"/>
	<g id="XMLID_2490_" class="st1">
		<text transform="matrix(1 0 0 1 77.6927 196.8071)" class="st2 st3">thn</text>
	</g>
	<g id="XMLID_2489_" class="st1">
		<text transform="matrix(1 0 0 1 77.6929 184.1586)" class="st2 st4">∞3</text>
	</g>
	<rect id="XMLID_1845_" x="69" y="510.6" class="st0" width="187.6" height="113.4"/>
	<rect id="XMLID_1848_" x="69" y="397.2" class="st0" width="187.6" height="113.4"/>
	<rect id="XMLID_1866_" x="69" y="283.7" class="st0" width="187.6" height="113.4"/>
	<g id="XMLID_2491_" class="st1">
		<text transform="matrix(1 0 0 1 77.6927 310.5434)" class="st2 st3">reg</text>
	</g>
	<g id="XMLID_2605_" class="st1">
		<text transform="matrix(1 0 0 1 77.6929 297.2007)" class="st2 st4">∞3</text>
	</g>
	<g id="XMLID_2492_" class="st1">
		<text transform="matrix(1 0 0 1 77.6929 423.6928)" class="st2 st3">bld</text>
	</g>
	<g id="XMLID_2439_" class="st1">
		<text transform="matrix(1 0 0 1 77.6929 411.2915)" class="st2 st4">∞3</text>
	</g>
	<g id="XMLID_2493_" class="st1">
		<text transform="matrix(1 0 0 1 77.6929 539.0258)" class="st2 st3">blk</text>
	</g>
	<g id="XMLID_2459_" class="st1">
		<text transform="matrix(1 0 0 1 77.6929 525.5072)" class="st2 st4">∞4</text>
	</g>
	<g id="XMLID_2521_" class="st1">
		<text transform="matrix(1 0 0 1 239.6922 184.1586)" class="st2 st4">MO</text>
	</g>
	<g id="XMLID_1911_" class="st1">
		<text transform="matrix(1 0 0 1 239.6922 297.2007)" class="st2 st4">MO</text>
	</g>
	<g id="XMLID_1877_" class="st1">
		<text transform="matrix(1 0 0 1 239.6922 411.2915)" class="st2 st4">MO</text>
	</g>
	<g id="XMLID_1870_" class="st1">
		<text transform="matrix(1 0 0 1 239.6922 525.5072)" class="st2 st4">MO</text>
	</g>
	<g id="XMLID_2758_" class="st1">
		<text transform="matrix(1 0 0 1 77.6929 275.3716)" class="st2 st4">100</text>
	</g>
	<g id="XMLID_2579_" class="st1">
		<text transform="matrix(1 0 0 1 77.6929 388.4144)" class="st2 st4">400</text>
	</g>
	<g id="XMLID_2576_" class="st1">
		<text transform="matrix(1 0 0 1 77.6929 502.5043)" class="st2 st4">700</text>
	</g>
	<g id="XMLID_2561_" class="st1">
		<text transform="matrix(1 0 0 1 77.6929 616.7211)" class="st2 st4">900</text>
	</g>
	<line id="XMLID_891_" class="st0" x1="77.7" y1="248.2" x2="248.8" y2="248.2"/>
	<line id="XMLID_907_" class="st0" x1="77.3" y1="361.6" x2="248.3" y2="361.6"/>
	<line id="XMLID_908_" class="st0" x1="77.3" y1="474.9" x2="248.3" y2="474.9"/>
	<line id="XMLID_911_" class="st0" x1="77.3" y1="588.3" x2="248.3" y2="588.3"/>
</g>
<g id="XMLID_1868_">
	<rect id="XMLID_2478_" x="256.6" y="170.3" class="st0" width="187.6" height="113.4"/>
	<rect id="XMLID_2197_" x="256.6" y="510.6" class="st0" width="187.6" height="113.4"/>
	<rect id="XMLID_1906_" x="256.6" y="397.2" class="st0" width="187.6" height="113.4"/>
	<rect id="XMLID_1891_" x="256.6" y="283.7" class="st0" width="187.6" height="113.4"/>
	<g id="XMLID_2046_" class="st1">
		<text transform="matrix(1 0 0 1 264.315 196.8071)" class="st2 st3">thn_it</text>
	</g>
	<g id="XMLID_2010_" class="st1">
		<text transform="matrix(1 0 0 1 264.3149 184.1586)" class="st2 st4">∞3</text>
	</g>
	<g id="XMLID_1995_" class="st1">
		<text transform="matrix(1 0 0 1 264.315 310.5434)" class="st2 st3">reg_it</text>
	</g>
	<g id="XMLID_1977_" class="st1">
		<text transform="matrix(1 0 0 1 264.3149 297.2007)" class="st2 st4">∞3</text>
	</g>
	<g id="XMLID_1968_" class="st1">
		<text transform="matrix(1 0 0 1 264.315 423.6928)" class="st2 st3">bld_it</text>
	</g>
	<g id="XMLID_1965_" class="st1">
		<text transform="matrix(1 0 0 1 264.3149 411.2915)" class="st2 st4">∞3</text>
	</g>
	<g id="XMLID_1941_" class="st1">
		<text transform="matrix(1 0 0 1 264.3149 539.0258)" class="st2 st3">blk_it</text>
	</g>
	<g id="XMLID_1917_" class="st1">
		<text transform="matrix(1 0 0 1 264.3149 525.5072)" class="st2 st4">∞4</text>
	</g>
	<g id="XMLID_2558_" class="st1">
		<text transform="matrix(1 0 0 1 264.3149 275.3716)" class="st2 st4">100</text>
	</g>
	<g id="XMLID_2554_" class="st1">
		<text transform="matrix(1 0 0 1 264.3149 388.4144)" class="st2 st4">400</text>
	</g>
	<g id="XMLID_2551_" class="st1">
		<text transform="matrix(1 0 0 1 264.3149 502.5043)" class="st2 st4">700</text>
	</g>
	<g id="XMLID_2548_" class="st1">
		<text transform="matrix(1 0 0 1 264.3149 616.7211)" class="st2 st4">900</text>
	</g>
	<g id="XMLID_1881_" class="st1">
		<text transform="matrix(1 0 0 1 426.314 184.1586)" class="st2 st4">MG</text>
	</g>
	<g id="XMLID_1876_" class="st1">
		<text transform="matrix(1 0 0 1 426.314 297.2007)" class="st2 st4">MG</text>
	</g>
	<g id="XMLID_1846_" class="st1">
		<text transform="matrix(1 0 0 1 426.314 411.2915)" class="st2 st4">MG</text>
	</g>
	<g id="XMLID_1803_" class="st1">
		<text transform="matrix(1 0 0 1 426.314 525.5072)" class="st2 st4">MG</text>
	</g>
	<line id="XMLID_924_" class="st0" x1="265.1" y1="248.2" x2="436.1" y2="248.2"/>
	<line id="XMLID_923_" class="st0" x1="264.7" y1="361.6" x2="435.7" y2="361.6"/>
	<line id="XMLID_922_" class="st0" x1="264.7" y1="474.9" x2="435.7" y2="474.9"/>
	<line id="XMLID_912_" class="st0" x1="264.7" y1="588.3" x2="435.7" y2="588.3"/>
</g>
<g id="XMLID_897_">
	<rect id="XMLID_2160_" x="444.2" y="170.3" class="st0" width="187.6" height="113.4"/>
	<rect id="XMLID_2159_" x="444.2" y="510.6" class="st0" width="187.6" height="113.4"/>
	<line id="XMLID_1292_" class="st0" x1="452.7" y1="248.2" x2="623.8" y2="248.2"/>
	<line id="XMLID_1248_" class="st0" x1="452.3" y1="361.6" x2="623.3" y2="361.6"/>
	<line id="XMLID_1144_" class="st0" x1="452.3" y1="474.9" x2="623.3" y2="474.9"/>
	<line id="XMLID_925_" class="st0" x1="452.3" y1="588.3" x2="623.3" y2="588.3"/>
	<rect id="XMLID_2158_" x="444.2" y="397.2" class="st0" width="187.6" height="113.4"/>
	<rect id="XMLID_2157_" x="444.2" y="283.7" class="st0" width="187.6" height="113.4"/>
	<g id="XMLID_2078_" class="st1">
		<text transform="matrix(1 0 0 1 451.9192 196.8071)" class="st2 st3">thn_wd</text>
	</g>
	<g id="XMLID_2074_" class="st1">
		<text transform="matrix(1 0 0 1 451.9194 184.1586)" class="st2 st4">∞4</text>
	</g>
	<g id="XMLID_2068_" class="st1">
		<text transform="matrix(1 0 0 1 451.9192 310.5434)" class="st2 st3">reg_wd</text>
	</g>
	<g id="XMLID_2064_" class="st1">
		<text transform="matrix(1 0 0 1 451.9194 297.2007)" class="st2 st4">∞4</text>
	</g>
	<g id="XMLID_2060_" class="st1">
		<text transform="matrix(1 0 0 1 451.9192 423.6928)" class="st2 st3">bld_wd</text>
	</g>
	<g id="XMLID_2057_" class="st1">
		<text transform="matrix(1 0 0 1 451.9194 411.2915)" class="st2 st4">∞4</text>
	</g>
	<g id="XMLID_2050_" class="st1">
		<text transform="matrix(1 0 0 1 451.9195 539.0258)" class="st2 st3">blk_wd</text>
	</g>
	<g id="XMLID_1902_" class="st1">
		<text transform="matrix(1 0 0 1 451.9194 525.5072)" class="st2 st4">∞4</text>
	</g>
	<g id="XMLID_1899_" class="st1">
		<text transform="matrix(1 0 0 1 451.9194 275.3716)" class="st2 st4">100</text>
	</g>
	<g id="XMLID_1721_" class="st1">
		<text transform="matrix(1 0 0 1 451.9194 388.4144)" class="st2 st4">400</text>
	</g>
	<g id="XMLID_1599_" class="st1">
		<text transform="matrix(1 0 0 1 451.9194 502.5043)" class="st2 st4">700</text>
	</g>
	<g id="XMLID_1591_" class="st1">
		<text transform="matrix(1 0 0 1 451.9194 616.7211)" class="st2 st4">900</text>
	</g>
	<g id="XMLID_909_" class="st1">
		<text transform="matrix(1 0 0 1 613.9185 184.1586)" class="st2 st4">MG</text>
	</g>
	<g id="XMLID_906_" class="st1">
		<text transform="matrix(1 0 0 1 613.9185 297.2007)" class="st2 st4">MG</text>
	</g>
	<g id="XMLID_902_" class="st1">
		<text transform="matrix(1 0 0 1 613.9185 411.2915)" class="st2 st4">MG</text>
	</g>
	<g id="XMLID_898_" class="st1">
		<text transform="matrix(1 0 0 1 613.9185 525.5072)" class="st2 st4">MG</text>
	</g>
</g>
<g id="XMLID_893_">
	<rect id="XMLID_1978_" x="631.8" y="170.3" class="st0" width="187.6" height="113.4"/>
	<rect id="XMLID_1976_" x="631.8" y="510.6" class="st0" width="187.6" height="113.4"/>
	<rect id="XMLID_1974_" x="631.8" y="397.2" class="st0" width="187.6" height="113.4"/>
	<rect id="XMLID_1970_" x="631.8" y="283.7" class="st0" width="187.6" height="113.4"/>
	<g id="XMLID_1961_" class="st1">
		<text transform="matrix(1 0 0 1 639.5238 196.8071)" class="st2 st3">thn_wd_it</text>
	</g>
	<g id="XMLID_1958_" class="st1">
		<text transform="matrix(1 0 0 1 639.524 184.1586)" class="st2 st4">∞4</text>
	</g>
	<g id="XMLID_1954_" class="st1">
		<text transform="matrix(1 0 0 1 639.5238 310.5434)" class="st2 st3">reg_wd_it</text>
	</g>
	<g id="XMLID_1946_" class="st1">
		<text transform="matrix(1 0 0 1 639.524 297.2007)" class="st2 st4">∞4</text>
	</g>
	<g id="XMLID_1937_" class="st1">
		<text transform="matrix(1 0 0 1 639.5238 423.6928)" class="st2 st3">bld_wd_it</text>
	</g>
	<g id="XMLID_1934_" class="st1">
		<text transform="matrix(1 0 0 1 639.524 411.2915)" class="st2 st4">∞4</text>
	</g>
	<g id="XMLID_1931_" class="st1">
		<text transform="matrix(1 0 0 1 639.523 539.0258)" class="st2 st3">blk_wd_it</text>
	</g>
	<g id="XMLID_1927_" class="st1">
		<text transform="matrix(1 0 0 1 639.524 525.5072)" class="st2 st4">∞4</text>
	</g>
	<g id="XMLID_1924_" class="st1">
		<text transform="matrix(1 0 0 1 639.524 275.3716)" class="st2 st4">100</text>
	</g>
	<g id="XMLID_1921_" class="st1">
		<text transform="matrix(1 0 0 1 639.524 388.4144)" class="st2 st4">400</text>
	</g>
	<g id="XMLID_1915_" class="st1">
		<text transform="matrix(1 0 0 1 639.524 502.5043)" class="st2 st4">700</text>
	</g>
	<g id="XMLID_1905_" class="st1">
		<text transform="matrix(1 0 0 1 639.524 616.7211)" class="st2 st4">900</text>
	</g>
	<g id="XMLID_1839_" class="st1">
		<text transform="matrix(1 0 0 1 801.523 184.1586)" class="st2 st4">MG</text>
	</g>
	<g id="XMLID_910_" class="st1">
		<text transform="matrix(1 0 0 1 801.523 297.2007)" class="st2 st4">MG</text>
	</g>
	<g id="XMLID_904_" class="st1">
		<text transform="matrix(1 0 0 1 801.523 411.2915)" class="st2 st4">MG</text>
	</g>
	<g id="XMLID_899_" class="st1">
		<text transform="matrix(1 0 0 1 801.523 525.5072)" class="st2 st4">MG</text>
	</g>
	<line id="XMLID_2436_" class="st0" x1="640.3" y1="248.2" x2="811.4" y2="248.2"/>
	<line id="XMLID_2193_" class="st0" x1="639.9" y1="361.6" x2="810.9" y2="361.6"/>
	<line id="XMLID_2161_" class="st0" x1="639.9" y1="474.9" x2="810.9" y2="474.9"/>
	<line id="XMLID_1338_" class="st0" x1="639.9" y1="588.3" x2="810.9" y2="588.3"/>
</g>
<g>
	<path d="M132.3,331.3l0.1-2.8c10.6,0,13.6,3.7,13.6,14.4v18.8c0.1,0-7.1,0.6-10.3,0.7c-8.4,0-14.8-1.8-14.8-11.7v-5.4
		c0-7.3,4.8-9.8,10-9.8c4.2,0,8.4,1.7,11.4,3.5C142.4,332.4,137.6,331.3,132.3,331.3z M142.4,342c-3.5-1.8-7.6-3.4-11.7-3.4
		c-2.3,0-6.1,0.9-6.1,6.8v4.8c0,5.9,2,9.1,9.6,9.1c0.4,0,0.9-0.1,1.4-0.1c4.3-0.2,6.9-0.6,6.9-0.5V342H142.4z"/>
	<path d="M155.2,330.9c2.9-1.3,6.3-2.4,10.6-2.4c5.2,0,10.8,2.5,10.8,9.8c0,4.1,0,8.3,0,12.4c0,9.8-6.3,11.7-14.8,11.7
		c-3.1-0.1-10.4-0.7-10.3-0.7V316h3.7V330.9z M162.1,359.2c7.1,0,10.9-1.1,10.9-9c0-1.2,0-10.4,0-11.7c0-6.1-4.6-7-7-7
		c-4.2,0-7.3,1.1-10.8,2.6c0,8.2,0,16.3,0,24.6C155.2,358.7,157.9,359,162.1,359.2z"/>
	<path d="M201.6,333.5c-2.3-1-5.2-1.6-7.7-1.7c-6.1,0-8.6,4-8.7,9.7v8.2c-0.1,6.7,2.7,9.3,8.9,9.5c3.8,0,7.9-1,7.8-0.9l0.7,3.3
		c-2.8,0.7-5.7,1-8.6,1c-7.5-0.1-12.4-3.8-12.4-12.1V341c0-7.4,4-12.5,12.1-12.5c2.9,0,6,0.8,8.7,2.1L201.6,333.5z"/>
</g>
<g>
	<path d="M132.5,216.2l0.1-1.2c7.4,0,13.6,2,13.6,11.3v21.9c0.2,0-9.3,0.7-11.7,0.7c-9.5,0-13.4-3.9-13.4-11.7v-5.4
		c0-4.2,1.8-9.9,10.6-9.9c4.8,0,9.4,1.8,13.3,3.8C144.9,218.2,138.8,216.2,132.5,216.2z M144.9,227.2c-4.6-2.4-8.6-4-13.4-4
		c-6.8,0-9.3,4-9.3,8.8v5.7c0,4.8,2,10.1,12.2,10.1c2.9,0,10.7-0.7,10.5-0.7V227.2z"/>
	<path d="M152.8,217.5c3.3-1.4,7.4-2.5,12.3-2.5c8.8,0,11.6,5.7,11.6,9.8c0-0.1,0,12.5,0,12.4c0,7.8-3.7,11.7-13.4,11.7
		c-2.4,0-11.9-0.7-11.7-0.7v-45.7h1.2V217.5z M163.3,247.8c7.1,0,12.1-2.4,12.1-10.1c0-1.2,0-11.2,0-12.6c0-5-3.5-9-10.3-9
		c-4.8,0-8.8,1.1-12.3,2.7c0-0.1,0,28.4,0,28.3C152.7,247,160.4,247.7,163.3,247.8z"/>
	<path d="M202,218.3c-2.7-1.4-5.4-2.1-8.5-2.1c-6.9,0-10.7,4.4-10.7,11.5v9c0,8,4.7,10.9,11.6,10.9c4.2,0,8-1.1,7.9-1l0.3,1.3
		c-2.7,0.8-5.5,1-8.3,1c-7.6-0.1-12.7-3.5-12.7-12.1v-9.1c-0.1-8,4.2-12.8,12.3-12.8c2.9,0,5.9,0.8,8.6,2.1L202,218.3z"/>
</g>
<g>
	<path d="M495.2,216.2l0.1-1.2c11.1,0,20.4,2,20.4,11.3v21.9c0.3,0-14,0.7-17.6,0.7c-14.3,0-20.1-3.9-20.1-11.7v-5.4
		c0-4.2,2.7-9.9,15.9-9.9c7.2,0,14.6,1.8,20.5,3.8C514.3,218.2,504.6,216.2,495.2,216.2z M514.3,227.2c-6.9-2.4-13.4-4-20.6-4
		c-10.2,0-14.3,4-14.3,8.8v5.7c0,4.8,3.3,10.1,18.6,10.1c4.4,0,16.6-0.7,16.3-0.7V227.2z"/>
	<path d="M525.2,217.5c4.9-1.4,11.6-2.5,18.9-2.5c13.2,0,17.4,5.7,17.4,9.8c0-0.1,0,12.5,0,12.4c0,7.8-5.5,11.7-20.1,11.7
		c-3.6,0-17.9-0.7-17.6-0.7v-45.7h1.3V217.5z M541.4,247.8c10.6,0,18.7-2.4,18.7-10.1c0-1.2,0-11.2,0-12.6c0-5-5.8-9-16-9
		c-7.2,0-13.7,1.1-18.9,2.7c0-0.1,0,28.4,0,28.3C525,247,537,247.7,541.4,247.8z"/>
	<path d="M599.7,218.3c-4-1.4-8.3-2.1-13-2.1c-10.4,0-16.5,4.4-16.5,11.5v9c0,8,7.5,10.9,17.8,10.9c6.3,0,12.1-0.9,12.1-0.9l0.2,1.2
		c-4,0.8-8.3,1-12.4,1c-11.4-0.1-19.1-3.5-19.1-12.1v-9.1c-0.1-8,6.3-12.8,18.5-12.8c4.4,0,8.9,0.8,12.9,2.1L599.7,218.3z"/>
</g>
<g>
	<path d="M131.8,446.6l0.6-5c9.8,0,13.6,3.2,13.6,13.2v20c-3.6,0.5-7.4,0.7-11.7,0.7c-7.4,0-13.4-2.5-13.4-10.9v-6.3
		c0-6.7,4.1-9.7,8.9-9.7c3.3,0,7.2,1.5,9.1,4.3C138.8,448.1,136.7,446.6,131.8,446.6z M138.8,458.4c-0.7-0.5-4.1-2.3-7.1-2.3
		c-2,0-3.6,0.7-3.6,3.2v4.2c0,3.3,0.8,5.4,6.7,5.4c1,0,4-0.3,4-0.3S138.8,458.4,138.8,458.4z"/>
	<path d="M158.7,443.4c2.7-1.2,5.2-1.7,8.2-1.7c4.9,0,9.7,3.1,9.7,9.8c0-0.1,0,13.4,0,13.3c-0.4,8.5-6.1,10.9-13.6,10.9
		c-3.8,0-7.6-0.5-11.5-0.7v-45.7h7.2V443.4z M162.6,468.9c6.1,0,6.8-2.1,6.8-5.4c0-1,0-9.9,0-11.2c0-2.5-2.5-3.2-4.5-3.2
		c-3.1,0-5.5,1.1-6.2,1.6c0-0.1,0,18.1,0,18C158.7,468.7,161.5,468.9,162.6,468.9z"/>
	<path d="M201.2,449.3c-1.6-0.8-3.5-1.4-5.4-1.5c-3.8,0-6.8,1.2-6.8,5.5v10.2c0,4,2.7,5.9,6.8,5.9c2.8,0,5.9-0.7,5.8-0.7l1.3,5.9
		c-2.8,0.7-5.6,1.1-8.5,1.1c-7.5-0.3-12.5-3.7-12.5-12.1v-9.5c0-7.8,4.6-12.5,12.5-12.5c2.9,0.1,5.8,0.9,8.5,2.2L201.2,449.3z"/>
</g>
<g>
	<path d="M493.8,446.6l0.9-5c14.7,0,20.4,3.2,20.4,13.2v20c-5.4,0.5-11.1,0.7-17.5,0.7c-11.1,0-20.1-2.5-20.1-10.9v-6.3
		c0-6.7,6.1-9.7,13.4-9.7c4.9,0,13.8,1.9,16.8,4.3C507.4,448.1,501.1,446.6,493.8,446.6z M507.4,458.4c-1.5-0.5-9.5-2.8-15.8-2.8
		c-4.2,0-6.6,1.2-6.6,3.7v4.2c0,3.3,1.7,5.4,14,5.4c2.1,0,8.4-0.3,8.4-0.3S507.4,458.4,507.4,458.4z"/>
	<path d="M531,443.4c4.8-1.2,9.3-1.7,14.7-1.7c8.8,0,15.3,3.1,15.3,9.8c0-0.1,0,13.4,0,13.3c-0.6,8.5-9.1,10.9-20.4,10.9
		c-5.7,0-11.4-0.5-17.3-0.7v-45.7h7.7V443.4z M537.1,468.9c14.9,0,16.6-1.3,16.6-6.1c0-1,0-8.1,0-9.4c0-4.3-5.4-4.8-10.3-4.8
		c-7.6,0-11.1,1.5-12.4,2c0-0.1,0,18.1,0,18C531,468.7,534.4,468.9,537.1,468.9z"/>
	<path d="M598.9,449.3c-2.4-0.8-8.8-1.4-11.7-1.5c-6.3,0-11,1.7-11,6v9.7c0,4,5.7,5.9,11.8,5.9c4.2,0,11.6-0.7,11.4-0.7l1,5.9
		c-4.2,0.7-8.4,1.1-12.8,1.1c-11.3-0.3-18.8-3.7-18.8-12.1v-9.5c0-7.8,6.9-12.5,18.8-12.5c4.3,0.1,8.7,0.9,12.8,2.2L598.9,449.3z"/>
</g>
<g>
	<path d="M328.5,331.3l0.7-2.8c10.8,0,12.7,3.9,10.6,14.4l-4,18.8c0.1,0-7.2,0.6-10.4,0.7c-0.4,0-0.8,0-1.2,0
		c-7.7,0-13-2.5-11.1-11.7l1.2-5.4c1.5-7.3,6.8-9.8,12.1-9.8c4.3,0,8,1.7,10.7,3.5C338.3,332.4,333.6,331.3,328.5,331.3z M336.3,342
		c-3.1-1.8-6.9-3.4-11-3.4c-2.3,0-6.3,1-7.5,6.8l-1,4.8c-1.3,5.9,0,9.1,7.6,9.1c0.5,0,0.9-0.1,1.4-0.1c4.3-0.2,7-0.6,7-0.5
		L336.3,342z"/>
	<path d="M351.5,330.9c3.2-1.3,6.8-2.4,11.1-2.4c5.2,0,10.4,2.5,8.8,9.8c-0.9,4.1-1.8,8.3-2.7,12.4c-2,9.6-8.5,11.7-17.3,11.7
		c-3.1-0.1-10.3-0.7-10.2-0.7l9.7-45.7h3.7L351.5,330.9z M352.4,359.2c7.4,0,11.2-1.3,12.8-9c0.3-1.2,2.2-10.4,2.5-11.7
		c1.4-6.1-3.1-7-5.5-7c-4.2,0-7.5,1.1-11.4,2.6c-1.7,8.2-3.5,16.3-5.2,24.6C345.6,358.7,348.1,359,352.4,359.2z"/>
	<path d="M397.3,333.5c-2.1-1-5-1.6-7.4-1.6c-6.1,0-9.5,4.3-10.7,9.9l-1.7,7.8c-1.4,6.8,0.8,9.5,7.3,9.5c3.7-0.1,7.6-1,7.6-0.9v3.3
		c-2.7,0.7-5.5,1-8.2,1c-7.5,0-12.3-3.3-10.4-12.1l2-9.5c1.6-7.2,5.9-12.5,14.5-12.5c3,0,6,0.8,8.5,2.1L397.3,333.5z"/>
</g>
<g>
	<path d="M329,216.3l0.3-1.2c7.6,0,13,2.7,11.2,11.3l-4.7,21.9c0.3,0-9.5,0.7-11.9,0.7c-9.5,0-12.5-3.9-10.9-11.7l1.2-5.4
		c0.8-4.2,3.8-9.9,12.7-9.9c4.8,0,9,1.8,12.5,3.8C341,218.1,335,216.3,329,216.3z M339.1,227.2c-4.2-2.4-7.8-4-12.6-4
		c-6.7,0-10,3.9-11.1,8.7l-1.2,5.7c-1,4.7-0.3,10.1,10,10.1c2.9,0,10.9-0.7,10.7-0.7L339.1,227.2z"/>
	<path d="M349,217.5c3.6-1.4,8-2.5,12.7-2.5c8.8,0,10.4,5.7,9.6,9.8c0-0.1-2.7,12.5-2.7,12.4c-1.6,7.8-6.2,11.7-15.9,11.7
		c-2.4,0-11.7-0.7-11.5-0.7l9.7-45.7h1.2L349,217.5z M353,247.8c7.3,0,12.7-2.6,14.3-10.1c0.3-1.2,2.4-11.2,2.7-12.6
		c1-5-1.6-9-8.4-9c-4.8,0-9.1,1.1-12.9,2.7c0.1-0.1-6,28.4-6,28.3C342.6,247,350.1,247.7,353,247.8z"/>
	<path d="M398,218.3c-2.4-1.4-5.2-2-8-2c-6.9,0-11.7,5-13.2,11.5l-2,9c-1.6,7.6,1.8,10.8,8.8,10.9c0.1,0,0.3,0,0.4,0
		c4.3,0,8.3-1.1,8.3-1l-0.1,1.3c-3,0.7-6.1,1-9.1,1c-7.4-0.3-11.2-4-9.5-12.1l2-9.5c1.6-7.4,6.6-12.5,14.7-12.5
		c2.9,0,5.9,0.8,8.3,2.1L398,218.3z"/>
</g>
<g>
	<path d="M327.5,446.6l1.6-5c10,0,12.9,3.3,10.8,13.2l-4.3,20c-3.7,0.5-7.5,0.7-11.9,0.7c-7.4,0-12.8-2.6-11.1-10.9l1.4-6.3
		c1.5-6.6,6.1-9.7,10.9-9.7c3.1,0,6.8,1.4,8.2,4.3C334.2,448.3,332.6,446.6,327.5,446.6z M332,458.4c-0.7-0.5-3.7-2.3-6.7-2.3
		c-2,0-3.7,0.7-4.3,3.2l-0.8,4.2c-0.7,3.3-0.4,5.4,5.5,5.4c1.1,0,4.1-0.3,4-0.3L332,458.4z"/>
	<path d="M355.1,443.4c3.1-1.2,5.6-1.5,8.5-1.5c4.9,0,9.1,2.9,7.7,9.6c0-0.1-2.9,13.4-2.8,13.3c-2.2,8.5-8.5,10.9-16,10.9
		c-3.8,0-7.5-0.5-11.3-0.7l9.7-45.7h7.2L355.1,443.4z M353.5,468.9c6.1,0,7.3-2.1,8-5.4c0.3-1,2.1-9.9,2.4-11.2
		c0.5-2.5-1.9-3.2-3.8-3.2c-3.1,0-5.8,1.1-6.6,1.6c0.1-0.1-3.8,18.1-3.8,18C349.8,468.7,352.5,468.9,353.5,468.9z"/>
	<path d="M396.5,449.2c-1.6-0.8-3.6-1.4-5.6-1.4c-3.6,0-6.7,1.6-7.5,5.5l-2.2,10.2c-0.8,4,1.5,5.9,5.5,5.9c2.8,0,6-0.7,5.9-0.7
		l0.1,5.9c-2.9,0.8-5.8,1.1-8.8,1.1c-7.5-0.1-11.7-3.9-9.9-12.1l2.1-9.5c1.8-8.3,6.7-12.5,15.3-12.5c2.8,0.1,5.5,1,7.8,2.2
		L396.5,449.2z"/>
</g>
<g id="XMLID_900_">
	<g id="XMLID_2443_">
		<path id="XMLID_2445_" d="M130.9,561.6l1.9-6.5c9.7,0,13.4,3.2,13.4,13.1v19.9c-3.5,0.6-7.3,0.7-11.6,0.7
			c-7.3,0-13.3-2.6-13.3-10.9v-6.3c0-6.6,5.7-8.2,8.8-8.2c2.1,0,2.9,0.3,4.4,1C134.4,563.4,133.4,562.2,130.9,561.6z M134.4,574.1
			c-0.1-0.1-0.7-0.3-1.2-0.3c-0.3,0-0.6,0.1-0.6,0.7v2.8c0,0.3,0.1,0.8,0.9,0.8c0.3,0,0.9,0,0.9,0L134.4,574.1L134.4,574.1z"/>
		<path id="XMLID_2444_" d="M200,566.8c-1-0.4-2.3-0.8-3.5-0.8c-1.7,0-2.8,0.7-2.8,3v5.7c0,2.3,1.1,3.3,2.8,3.3
			c1.8,0,3.8-0.4,3.7-0.4l2.2,10.2c-2.8,0.7-5.5,1.1-8.4,1.1c-7.4-0.3-12.4-3.7-12.4-12.1v-9.5c0-7.8,4.6-12.4,12.3-12.4
			c2.8,0.1,5.7,0.9,8.4,2.1L200,566.8z"/>
	</g>
	<path id="XMLID_2440_" d="M163.6,556.4c0.6-0.3,3.2-1.3,5.3-1.3c4.4,0,7.7,3.1,7.7,9.7c0-0.1,0,13.3,0,13.2
		c-0.4,8.5-6.1,10.9-13.4,10.9c-3.8,0-7.5-0.6-11.4-0.7v-45.4h11.8C163.6,542.8,163.6,556.4,163.6,556.4z M164.2,578.3
		c1,0,1.1-0.5,1.1-1.2c0-0.2,0-9.7,0-10c0-0.6-0.4-0.7-0.8-0.7c-0.5,0-0.9,0.3-1,0.3v11.6C163.6,578.2,164,578.3,164.2,578.3z"/>
</g>
<g>
	<path id="XMLID_5_" d="M493.2,561.6l2.1-6.5c15.1,0,20.9,3.2,20.9,13.1v19.9c-5.5,0.6-11.4,0.7-18.1,0.7
		c-11.4,0-20.7-2.6-20.7-10.9v-6.3c0-6.6,8.4-8.2,14.1-8.2c3.9,0,8.7,0.3,13.1,1C504.3,563.4,499.5,562.2,493.2,561.6z M504.5,574.1
		c-0.9-0.1-6-0.3-10.3-0.3c-2.6,0-5.2-0.1-5.2,1.5v1.3c0,1.1,0.9,1.5,7.8,1.5c2.6,0,7.8,0,7.8,0L504.5,574.1L504.5,574.1z"/>
	<path id="XMLID_4_" d="M597.4,566.8c-2.4-0.4-5.6-0.8-8.5-0.8c-4.1,0-6.8,0.7-6.8,3.8v4.9c0,2.3,2.7,3.3,6.8,3.3c4.4,0,9-0.4,9-0.4
		l3.1,10.2c-4.2,0.7-8.3,1.1-12.6,1.1c-11.1-0.3-18.7-3.7-18.7-12.1v-9.5c0-7.8,6.9-12.4,18.5-12.4c4.2,0.1,8.6,0.9,12.6,2.1
		L597.4,566.8z"/>
	<path id="XMLID_2_" d="M535.8,556.4c0.9-0.3,7-1.3,11.5-1.3c9.6,0,13.9,3.9,13.9,10.5c0-0.1,0,12.5,0,12.4
		c-0.6,8.5-9.3,10.9-20.4,10.9c-5.8,0-11.4-0.6-17.3-0.7v-45.4h12.3C535.8,542.8,535.8,556.4,535.8,556.4z M542.5,578.6
		c6,0,7.2-1.6,7.2-3.7c0-1.4,0-5.8,0-6.1c0-2.1-2.1-2.9-5.2-2.9c-3.9,0-8.1,0.8-8.8,0.8v11.6C535.7,578.3,540.9,578.6,542.5,578.6z"
		/>
</g>
<g id="XMLID_2451_">
	<g id="XMLID_2455_">
		<path id="XMLID_2457_" d="M324.4,561.6l3.2-6.5c9.7,0,12.7,3.2,10.6,13.1l-4.2,19.9c-3.6,0.6-7.4,0.7-11.8,0.7
			c-7.3,0-12.7-2.6-11-10.9l1.3-6.3c1.4-6.6,7.4-8.2,10.5-8.2c2.1,0,2.8,0.3,4.1,1C327.5,563.4,326.8,562.2,324.4,561.6z
			 M325.2,574.1c-0.1-0.1-0.6-0.3-1.1-0.3c-0.3,0-0.6,0.1-0.7,0.7l-0.6,2.8c-0.1,0.3,0,0.8,0.7,0.8c0.3,0,0.9,0,0.9,0L325.2,574.1
			L325.2,574.1z"/>
		<path id="XMLID_2456_" d="M392.3,566.8c-0.9-0.4-2.1-0.8-3.3-0.8c-1.7,0-2.9,0.7-3.4,3l-1.2,5.7c-0.5,2.3,0.4,3.3,2.1,3.3
			c1.8,0,3.9-0.4,3.8-0.4v10.2c-2.9,0.7-5.8,1.1-8.7,1.1c-7.3-0.3-11.6-3.7-9.8-12.1l2-9.5c1.7-7.8,7.2-12.4,14.9-12.4
			c2.8,0.1,5.5,0.9,7.9,2.1L392.3,566.8z"/>
	</g>
	<path id="XMLID_2452_" d="M358.2,556.4c0.6-0.3,3.5-1.3,5.5-1.3c4.4,0,7.1,3.1,5.7,9.7c0-0.1-2.8,13.3-2.8,13.2
		c-2.2,8.5-8.4,10.9-15.7,10.9c-3.8,0-7.4-0.6-11.3-0.7l9.7-45.4h11.8C361.1,542.8,358.2,556.4,358.2,556.4z M354.2,578.3
		c1,0,1.2-0.5,1.4-1.2c0-0.2,2.1-9.7,2.1-10c0.1-0.6-0.3-0.7-0.6-0.7c-0.5,0-1,0.3-1.1,0.3l-2.5,11.6
		C353.6,578.2,354,578.3,354.2,578.3z"/>
</g>
<g id="XMLID_1825_">
	<path id="XMLID_1867_" class="st5" d="M247.8,604.1h-18.5c-0.6,0-1,0.4-1,1v10.7c0,0.6,0.4,1,1,1h18.5c0.6,0,1-0.4,1-1v-10.7
		C248.8,604.5,248.3,604.1,247.8,604.1z"/>
	<text id="XMLID_1827_" transform="matrix(1 0 0 1 231.7592 612.8403)" class="st6 st7 st8">NEW</text>
</g>
<g id="XMLID_1836_">
	<path id="XMLID_1884_" class="st5" d="M434.4,604.1h-18.5c-0.6,0-1,0.4-1,1v10.7c0,0.6,0.4,1,1,1h18.5c0.6,0,1-0.4,1-1v-10.7
		C435.4,604.5,435,604.1,434.4,604.1z"/>
	<text id="XMLID_1873_" transform="matrix(1 0 0 1 418.3803 612.8403)" class="st6 st7 st8">NEW</text>
</g>
<g id="XMLID_1886_">
	<path id="XMLID_1892_" class="st5" d="M622.7,604.1h-18.5c-0.6,0-1,0.4-1,1v10.7c0,0.6,0.4,1,1,1h18.5c0.6,0,1-0.4,1-1v-10.7
		C623.7,604.5,623.3,604.1,622.7,604.1z"/>
	<text id="XMLID_1889_" transform="matrix(1 0 0 1 606.6733 612.8403)" class="st6 st7 st8">NEW</text>
</g>
<g id="XMLID_1894_">
	<path id="XMLID_2537_" class="st5" d="M622.7,489.9h-18.5c-0.6,0-1,0.4-1,1v10.7c0,0.6,0.4,1,1,1h18.5c0.6,0,1-0.4,1-1v-10.7
		C623.7,490.3,623.3,489.9,622.7,489.9z"/>
	<text id="XMLID_1898_" transform="matrix(1 0 0 1 606.6733 498.6245)" class="st6 st7 st8">NEW</text>
</g>
<g id="XMLID_2541_">
	<path id="XMLID_2543_" class="st5" d="M622.7,375.8h-18.5c-0.6,0-1,0.4-1,1v10.7c0,0.6,0.4,1,1,1h18.5c0.6,0,1-0.4,1-1v-10.7
		C623.7,376.2,623.3,375.8,622.7,375.8z"/>
	<text id="XMLID_2542_" transform="matrix(1 0 0 1 606.6733 384.5336)" class="st6 st7 st8">NEW</text>
</g>
<g id="XMLID_2547_">
	<path id="XMLID_2550_" class="st5" d="M622.7,262.7h-18.5c-0.6,0-1,0.4-1,1v10.7c0,0.6,0.4,1,1,1h18.5c0.6,0,1-0.4,1-1v-10.7
		C623.7,263.1,623.3,262.7,622.7,262.7z"/>
	<text id="XMLID_2549_" transform="matrix(1 0 0 1 606.6733 271.4917)" class="st6 st7 st8">NEW</text>
</g>
<g id="XMLID_2560_">
	<path id="XMLID_2563_" class="st5" d="M810.4,604.1h-18.5c-0.6,0-1,0.4-1,1v10.7c0,0.6,0.4,1,1,1h18.5c0.6,0,1-0.4,1-1v-10.7
		C811.4,604.5,810.9,604.1,810.4,604.1z"/>
	<text id="XMLID_2562_" transform="matrix(1 0 0 1 794.3609 612.8403)" class="st6 st7 st8">NEW</text>
</g>
<g id="XMLID_2556_">
	<path id="XMLID_2559_" class="st5" d="M810.4,375.8h-18.5c-0.6,0-1,0.4-1,1v10.7c0,0.6,0.4,1,1,1h18.5c0.6,0,1-0.4,1-1v-10.7
		C811.4,376.2,810.9,375.8,810.4,375.8z"/>
	<text id="XMLID_2557_" transform="matrix(1 0 0 1 794.3609 384.5336)" class="st6 st7 st8">NEW</text>
</g>
<g id="XMLID_2564_">
	<path id="XMLID_2566_" class="st5" d="M810.4,489.9h-18.5c-0.6,0-1,0.4-1,1v10.7c0,0.6,0.4,1,1,1h18.5c0.6,0,1-0.4,1-1v-10.7
		C811.4,490.3,810.9,489.9,810.4,489.9z"/>
	<text id="XMLID_2565_" transform="matrix(1 0 0 1 794.3609 498.6245)" class="st6 st7 st8">NEW</text>
</g>
<g id="XMLID_2552_">
	<path id="XMLID_2555_" class="st5" d="M810.4,262.7h-18.5c-0.6,0-1,0.4-1,1v10.7c0,0.6,0.4,1,1,1h18.5c0.6,0,1-0.4,1-1v-10.7
		C811.4,263.1,810.9,262.7,810.4,262.7z"/>
	<text id="XMLID_2553_" transform="matrix(1 0 0 1 794.3609 271.4917)" class="st6 st7 st8">NEW</text>
</g>
<g>
	<path d="M495.2,331.3l0.2-2.8c15.9,0,20.4,3.7,20.4,14.4v18.8c0.1,0-10.6,0.6-15.5,0.7c-12.6,0-22.2-1.8-22.2-11.7v-5.4
		c0-7.3,7.2-9.8,15-9.8c6.3,0,13.8,1.7,18.3,3.5C511.5,332.4,503.1,331.3,495.2,331.3z M511.5,342c-5.3-1.8-12.6-3.4-18.8-3.4
		c-3.4,0-11.2,0.9-11.2,6.8v4.8c0,5.9,5,9.1,16.4,9.1c0.6,0,1.4-0.1,2.1-0.1c6.5-0.2,11.6-0.6,11.6-0.5V342H511.5z"/>
	<path d="M527.8,330.9c4.3-1.3,11.1-2.4,17.6-2.4c7.8,0,16.2,2.5,16.2,9.8c0,4.1,0,8.3,0,12.4c0,9.8-9.5,11.7-22.2,11.7
		c-4.7-0.1-15.6-0.7-15.5-0.7V316h3.9V330.9z M539.9,359.2c10.6,0,17.9-1.1,17.9-9c0-1.2,0-10.4,0-11.7c0-6.1-8.4-7-12-7
		c-6.3,0-12.6,1.1-17.9,2.6c0,8.2,0,16.3,0,24.6C527.8,358.7,533.6,359,539.9,359.2z"/>
	<path d="M599.4,333.5c-3.5-1-8.1-1.6-11.8-1.7c-9.1,0-14.7,4-14.9,9.7v8.2c-0.1,6.7,5.9,9.3,15.2,9.5c5.7,0,12-0.9,12-0.9l0.8,3.3
		c-4.2,0.7-8.6,1-12.9,1c-11.3-0.1-18.6-3.8-18.6-12.1V341c0-7.4,6-12.5,18.1-12.5c4.4,0,9,0.8,13,2.1L599.4,333.5z"/>
</g>
<g>
	<path d="M681.2,216.2l0.4-1.2c11.1,0,20,2,18,11.3l-4.7,21.9c0.3,0-14.1,0.7-17.7,0.7c-14.3,0-19.3-3.9-17.6-11.7l1.1-5.4
		c0.9-4.2,4.8-9.9,18-9.9c7.2,0,14.3,1.8,19.7,3.8C699.9,218.2,690.6,216.2,681.2,216.2z M698,227.2c-6.4-2.4-12.6-4-19.8-4
		c-10.2,0-15.1,4-16.2,8.8l-1.2,5.7c-1,4.8,1.2,10.1,16.5,10.1c4.4,0,16.7-0.7,16.4-0.7L698,227.2z"/>
	<path d="M710.9,217.5c5.2-1.4,12.1-2.5,19.4-2.5c13.2,0,16.2,5.7,15.3,9.8c0-0.1-2.7,12.5-2.6,12.4c-1.7,7.8-8,11.7-22.6,11.7
		c-3.6,0-17.7-0.7-17.4-0.7l9.7-45.7h1.3L710.9,217.5z M720.7,247.8c10.6,0,19.2-2.4,20.8-10.1c0.3-1.2,2.4-11.2,2.7-12.6
		c1.1-5-3.9-9-14.1-9c-7.2,0-13.9,1.1-19.5,2.7c0-0.1-6,28.4-6,28.3C704.5,247,716.3,247.7,720.7,247.8z"/>
	<path d="M785.2,218.3c-3.8-1.4-7.9-2.1-12.6-2.1c-10.4,0-17.4,4.4-18.9,11.5l-1.9,9c-1.7,8,5.2,10.9,15.5,10.9
		c6.3,0,12.3-0.9,12.3-0.9l-0.1,1.2c-4.2,0.8-8.5,1-12.7,1c-11.4-0.1-18.3-3.5-16.5-12.1l1.9-9.1c1.6-8,9-12.8,21.2-12.8
		c4.3,0,8.7,0.8,12.5,2.1L785.2,218.3z"/>
</g>
<g>
	<path d="M679,446.6l2-5c14.7,0,19.7,3.2,17.6,13.2l-4.3,20c-5.5,0.5-11.2,0.7-17.7,0.7c-11.1,0-19.6-2.5-17.8-10.9l1.3-6.3
		c1.4-6.7,8.2-9.7,15.4-9.7c5,0,13.4,1.9,15.9,4.3C692.3,448.1,686.4,446.6,679,446.6z M690.1,458.4c-1.4-0.5-8.9-2.8-15.2-2.8
		c-4.2,0-6.9,1.2-7.4,3.7l-0.9,4.2c-0.7,3.3,0.5,5.4,12.9,5.4c2.1,0,8.5-0.3,8.5-0.3S690.1,458.4,690.1,458.4z"/>
	<path d="M716.9,443.4c5.1-1.2,9.7-1.7,15-1.7c8.8,0,14.6,3.1,13.2,9.8c0-0.1-2.8,13.4-2.8,13.3c-2.4,8.5-11.5,10.9-22.7,10.9
		c-5.7,0-11.3-0.5-17.1-0.7l9.7-45.7h7.7L716.9,443.4z M717.6,468.9c14.9,0,16.9-1.3,17.9-6.1c0.2-1,1.7-8.1,2-9.4
		c0.9-4.3-4.4-4.8-9.3-4.8c-7.6,0-11.5,1.5-12.8,2c0-0.1-3.8,18.1-3.8,18C711.6,468.7,714.9,468.9,717.6,468.9z"/>
	<path d="M783.6,449.3c-2.2-0.8-8.5-1.4-11.3-1.5c-6.3,0-11.4,1.7-12.3,6l-2.1,9.7c-0.9,4,4.4,5.9,10.6,5.9c4.2,0,11.7-0.7,11.6-0.7
		l-0.3,5.9c-4.3,0.7-8.6,1.1-13,1.1c-11.2-0.3-18-3.7-16.2-12.1l2-9.5c1.7-7.8,9.6-12.5,21.4-12.5c4.3,0.1,8.5,0.9,12.3,2.2
		L783.6,449.3z"/>
</g>
<g>
	<path id="XMLID_6_" d="M678.1,561.6l3.5-6.5c15.1,0,20.2,3.2,18.1,13.1l-4.2,19.9c-5.6,0.6-11.5,0.7-18.2,0.7
		c-11.4,0-20.2-2.6-18.4-10.9l1.3-6.3c1.4-6.6,10.2-8.2,15.9-8.2c3.9,0,8.6,0.3,12.9,1C688.8,563.4,684.3,562.2,678.1,561.6z
		 M686.7,574.1c-0.8-0.1-6-0.3-10.3-0.3c-2.6,0-5.2-0.1-5.5,1.5l-0.3,1.3c-0.2,1.1,0.5,1.5,7.4,1.5c2.6,0,7.8,0,7.8,0L686.7,574.1
		L686.7,574.1z"/>
	<path id="XMLID_3_" d="M781.2,566.8c-2.3-0.4-5.4-0.8-8.3-0.8c-4.1,0-7,0.7-7.6,3.8l-1,4.9c-0.5,2.3,2,3.3,6.1,3.3
		c4.4,0,9.1-0.4,9.1-0.4l1,10.2c-4.4,0.7-8.5,1.1-12.9,1.1c-11.1-0.3-17.9-3.7-16.1-12.1l2-9.5c1.7-7.8,9.6-12.4,21.2-12.4
		c4.2,0.1,8.4,0.9,12.2,2.1L781.2,566.8z"/>
	<path id="XMLID_1_" d="M722.8,556.4c1-0.3,7.2-1.3,11.8-1.3c9.6,0,13,3.9,11.6,10.5c0-0.1-2.6,12.5-2.6,12.4
		c-2.4,8.5-11.6,10.9-22.7,10.9c-5.8,0-11.3-0.6-17.2-0.7l9.7-45.4h12.3C725.7,542.8,722.8,556.4,722.8,556.4z M724.8,578.6
		c6,0,7.5-1.6,8-3.7c0.3-1.4,1.2-5.8,1.3-6.1c0.5-2.1-1.5-2.9-4.6-2.9c-3.9,0-8.2,0.8-9,0.8l-2.5,11.6
		C718,578.3,723.2,578.6,724.8,578.6z"/>
</g>
<g>
	<path d="M680.9,331.3l0.7-2.8c15.9,0,19.6,3.7,17.3,14.4l-4,18.8c0.2,0-10.8,0.6-15.6,0.7c-12.6,0-21.8-1.8-19.7-11.7l1.1-5.4
		c1.6-7.3,9.3-9.8,17.1-9.8c6.3,0,13.4,1.7,17.6,3.5C697,332.4,688.8,331.3,680.9,331.3z M695,342c-4.9-1.8-11.9-3.4-18-3.4
		c-3.5,0-11.4,0.9-12.6,6.8l-1,4.8c-1.3,5.9,3.1,9.1,14.5,9.1c0.6,0,1.4-0.1,2.1-0.1c6.5-0.2,11.7-0.6,11.7-0.5l3.5-16.7H695z"/>
	<path d="M713.6,330.9c4.6-1.3,11.6-2.4,18.1-2.4c7.8,0,15.7,2.5,14.1,9.8c-0.9,4.1-1.8,8.3-2.6,12.4c-2.1,9.8-11.9,11.7-24.7,11.7
		c-4.6-0.1-15.5-0.7-15.3-0.7l9.7-45.7h3.9L713.6,330.9z M719.6,359.2c10.7,0,18.1-1.1,19.8-9c0.3-1.2,2.2-10.4,2.5-11.7
		c1.3-6.1-7-7-10.6-7c-6.3,0-12.9,1.1-18.4,2.6c-1.7,8.2-3.5,16.3-5.2,24.6C707.7,358.7,713.4,359,719.6,359.2z"/>
	<path d="M784.6,333.5c-3.2-1-7.7-1.6-11.5-1.7c-9.1,0-15.6,4-17,9.7l-1.7,8.2c-1.6,6.7,3.9,9.3,13.2,9.5c5.7,0,12.2-0.9,12.2-0.9
		l0.1,3.3c-4.3,0.7-8.8,1-13.1,1c-11.2-0.1-17.8-3.8-16-12.1l2-9.5c1.6-7.4,8.7-12.5,20.8-12.5c4.4,0,8.8,0.8,12.6,2.1L784.6,333.5z
		"/>
</g>
</svg>
