<?xml version="1.0" encoding="utf-8"?>
<!-- Generator: Adobe Illustrator 19.0.0, SVG Export Plug-In . SVG Version: 6.00 Build 0)  -->
<svg version="1.1" id="Layer_1" xmlns="http://www.w3.org/2000/svg" xmlns:xlink="http://www.w3.org/1999/xlink" x="0px" y="0px"
	 width="262px" height="206px" viewBox="0 0 262 206" style="enable-background:new 0 0 262 206;" xml:space="preserve">
<style type="text/css">
	.st0{opacity:0.8;}
	.st1{fill:#FFFFFF;}
	.st2{font-family:'monospace';}
	.st3{font-size:7.9381px;}
</style>
<g id="XMLID_6_">
	<g id="XMLID_1_">
		<path id="XMLID_49_" d="M98.8,88.4V39.6h3.2v118.5h-3.2V91.4H33.2v66.7H30V39.6h3.2v48.8H98.8z"/>
	</g>
</g>
<g id="XMLID_10_">
	<g id="XMLID_3_">
		<path id="XMLID_47_" d="M154.1,135.2v-16h3.2v39h-3.2v-19.9h-17.7v19.9h-3.2v-39h3.2v16H154.1z"/>
	</g>
</g>
<g id="XMLID_11_">
	<g id="XMLID_4_">
		<path id="XMLID_45_" d="M193.3,146.2v-8.3h3.2v20.2h-3.2v-8.9h-6.1v8.9H184v-20.2h3.2v8.3H193.3z"/>
	</g>
</g>
<g id="XMLID_12_">
	<g id="XMLID_5_">
		<path id="XMLID_8_" d="M231.3,150.4v-4.6h3.2v12.4h-3.2v-4.9H230v4.9h-3.2v-12.4h3.2v4.6H231.3z"/>
	</g>
</g>
<g id="XMLID_15_" class="st0">
	<path id="XMLID_2_" class="st1" d="M243.9,168H19V14h224.9V168z M235.7,145.8c0-1.6-1.3-2.8-2.8-2.8s-2.8,1.3-2.8,2.8
		s1.3,2.8,2.8,2.8S235.7,147.4,235.7,145.8z M197.8,137.9c0-1.6-1.3-2.8-2.8-2.8c-1.6,0-2.8,1.3-2.8,2.8s1.3,2.8,2.8,2.8
		C196.5,140.7,197.8,139.5,197.8,137.9z M158.5,119.1c0-1.6-1.3-2.8-2.8-2.8s-2.8,1.3-2.8,2.8c0,1.6,1.3,2.8,2.8,2.8
		S158.5,120.7,158.5,119.1z M103.1,39.6c0-1.6-1.3-2.8-2.8-2.8s-2.8,1.3-2.8,2.8c0,1.6,1.3,2.8,2.8,2.8S103.1,41.1,103.1,39.6z"/>
</g>
<text id="XMLID_53_" transform="matrix(1 0 0 1 30.0083 186.5)" class="st2 st3">170pt</text>
<text id="XMLID_52_" transform="matrix(1 0 0 1 133.5175 186.5)" class="st2 st3">55pt</text>
<text id="XMLID_51_" transform="matrix(1 0 0 1 183.8997 186.5)" class="st2 st3">28pt</text>
<text id="XMLID_7_" transform="matrix(1 0 0 1 226.0839 186.5)" class="st2 st3">17pt</text>
</svg>
