<svg version="1.1" width="445" xmlns="http://www.w3.org/2000/svg"><defs /><path d="M354 349C307 375 244 402 179 402C98 402 26 363 26 251C26 223 26 196 26 168C26 21 124 -14 252 -10C302 -9 410 0 410 0C410 96 410 191 410 287C410 375 402 444 339 480C297 504 248 507 202 507L200 464C237 464 271 461 296 449C333 432 354 404 354 349ZM354 302C354 217 354 132 354 46C354 46 313 42 248 38C115 33 81 80 81 175C81 195 81 226 81 249C81 339 138 354 174 354C238 354 299 329 354 302ZM485 777 356 904 225 776 264 738 356 828 445 740Z" glyph-name="acircumflex" unicode="&#226;" /></svg>