<svg version="1.1" width="447" xmlns="http://www.w3.org/2000/svg"><defs /><path d="M354 349C307 375 244 402 179 402C98 402 26 363 26 251C26 223 26 196 26 168C26 21 124 -14 252 -10C302 -9 410 0 410 0C410 96 410 191 410 287C410 375 402 444 339 480C297 504 248 507 202 507L200 464C237 464 271 461 296 449C333 432 354 404 354 349ZM354 302C354 217 354 132 354 46C354 46 313 42 248 38C115 33 81 80 81 175C81 195 81 226 81 249C81 339 138 354 174 354C238 354 299 329 354 302ZM277 875C259 875 244 860 244 841C244 822 259 808 277 808C295 808 311 822 311 841C311 860 295 875 277 875ZM435 875C416 875 402 860 402 841C402 822 416 808 435 808C454 808 468 822 468 841C468 860 454 875 435 875Z" glyph-name="adieresis" unicode="&#228;" /></svg>