<svg version="1.1" width="747" xmlns="http://www.w3.org/2000/svg"><defs /><path d="M413 133V195L717 211V341C717 449 648 508 541 508C469 508 416 484 383 437C346 498 266 507 202 507C201 493 201 479 200 464C290 464 354 442 354 349C307 375 244 402 179 402C98 402 26 363 26 251V168C26 40 102 -4 206 -10C229 -11 398 -3 410 0V14C448 -11 499 -12 529 -12C579 -11 641 4 691 35L669 78C619 51 577 36 524 36C492 36 413 38 413 133ZM354 302V46C354 46 313 42 248 38C115 33 81 80 81 175V249C81 339 138 354 174 354C238 354 299 329 354 302ZM660 348V261L413 250V308C413 414 452 461 539 461C582 461 660 439 660 348Z" glyph-name="ae" unicode="&#230;" /></svg>