<svg version="1.1" width="527" xmlns="http://www.w3.org/2000/svg"><defs /><path d="M378 651 403 702C403 702 295 702 238 702C145 702 91 636 96 546C97 505 106 451 163 402C160 402 156 403 154 402C82 396 30 358 30 254C30 222 30 191 30 159C33 46 97 -6 207 -6C252 -6 321 14 362 62C377 26 407 4 453 -9L466 34C422 50 398 84 398 136V349H474L497 403H398V505H345V402C322 402 299 402 295 402C214 402 152 464 152 543C149 607 185 651 241 651C277 651 378 651 378 651ZM345 349V176C345 106 299 57 218 50C132 42 86 87 86 164C86 169 86 248 86 251C86 342 147 349 184 349C213 349 291 349 345 349Z" glyph-name="ampersand" unicode="&amp;" /></svg>