<svg version="1.1" width="445" xmlns="http://www.w3.org/2000/svg"><defs /><path d="M356 349C310 375 246 402 181 402C101 402 28 363 28 251C28 223 28 196 28 168C28 21 126 -14 255 -10C304 -9 412 0 412 0C412 96 412 191 412 287C412 375 404 444 341 480C300 504 250 507 204 507L202 464C239 464 273 461 299 449C335 432 356 404 356 349ZM356 302C356 217 356 132 356 46C356 46 315 42 250 38C117 33 83 80 83 175C83 195 83 226 83 249C83 339 140 354 176 354C240 354 301 329 356 302ZM206 465C270 465 321 517 321 580C321 642 270 693 206 693C144 693 93 642 93 580C93 517 144 465 206 465ZM277 580C277 541 245 509 206 509C168 509 137 541 137 580C137 618 168 649 206 649C245 649 277 618 277 580Z" glyph-name="aring" unicode="&#229;" /></svg>