<svg version="1.1" width="717" xmlns="http://www.w3.org/2000/svg"><defs /><path d="M688 450 673 491C616 474 599 433 599 363C599 354 599 172 599 162C599 35 474 -11 348 -11C196 -11 91 44 91 189C91 240 91 290 91 341C91 465 175 529 287 529C380 529 444 496 462 442C407 442 351 442 296 442C222 441 155 405 155 288V233C155 84 253 58 348 61C395 63 514 69 514 69C514 176 514 282 514 388H564L577 442H510C494 515 427 577 284 577C122 577 31 477 31 338C31 290 32 239 32 183C32 11 183 -66 340 -66C503 -66 655 2 655 170L654 380C654 417 665 440 688 450ZM293 388C352 388 409 388 467 388V119C467 119 399 111 328 111C248 111 208 152 208 227V285C208 383 262 388 293 388Z" glyph-name="at" unicode="@" /></svg>