<svg version="1.1" width="448" xmlns="http://www.w3.org/2000/svg"><defs /><path d="M354 349C307 375 244 402 179 402C98 402 26 363 26 251C26 223 26 196 26 168C26 21 124 -14 252 -10C302 -9 410 0 410 0C410 96 410 191 410 287C410 375 402 444 339 480C297 504 248 507 202 507L200 464C237 464 271 461 296 449C333 432 354 404 354 349ZM354 302C354 217 354 132 354 46C354 46 313 42 248 38C115 33 81 80 81 175C81 195 81 226 81 249C81 339 138 354 174 354C238 354 299 329 354 302ZM429 852V834C429 815 424 794 400 805C391 809 386 813 375 820C361 829 347 840 332 846C309 856 280 856 260 840C240 823 235 797 235 773V755H285V773C285 780 284 795 291 801C300 808 313 801 323 795C334 788 345 780 357 773C374 762 392 752 413 752C459 752 479 792 479 834V852Z" glyph-name="atilde" unicode="&#227;" /></svg>