<svg version="1.1" width="441" xmlns="http://www.w3.org/2000/svg"><defs /><path d="M39 520V-198L95 -212V-4C129 -7 171 -10 196 -10C325 -14 411 21 411 168C411 197 411 224 411 253C411 356 361 397 289 404C286 404 275 404 273 404C330 453 348 504 350 544C353 635 300 701 207 701C104 701 39 616 39 520ZM96 361V527C96 587 137 645 204 645C261 645 295 599 293 543C287 477 249 425 171 392C151 384 136 377 96 361ZM95 45V304C121 317 147 328 174 338C206 349 228 356 262 356C300 356 358 341 358 251C358 228 358 194 358 175C358 80 335 33 202 38C137 41 95 45 95 45Z" glyph-name="beta" unicode="&#946;" /></svg>