<svg version="1.1" width="380" xmlns="http://www.w3.org/2000/svg"><defs /><path d="M333 430 348 476C291 503 224 516 166 504C121 494 83 470 56 426C38 394 31 362 29 318V173C29 75 73 23 141 1C201 -18 283 -13 350 5L339 55C339 55 217 26 153 52C100 71 84 119 84 185V305C84 341 91 371 103 394C119 426 145 446 175 453C218 464 285 452 333 430ZM535 -50H485L445 -119L458 -148C485 -146 510 -142 532 -141C566 -141 590 -148 590 -183C590 -223 558 -235 519 -234C492 -234 463 -228 436 -223C428 -252 431 -243 424 -271C427 -271 478 -283 525 -283C604 -283 641 -234 640 -185C640 -135 601 -85 535 -92C526 -93 517 -93 509 -94Z" glyph-name="ccedilla" unicode="&#231;" /></svg>