<svg version="1.1" width="422" xmlns="http://www.w3.org/2000/svg"><defs /><path d="M353 637 370 675C327 697 279 708 228 708C187 708 151 700 121 683C63 647 34 590 34 503V183C34 99 67 42 116 15C164 -10 213 -10 234 -10C284 -10 338 1 395 23L383 69C326 50 277 40 238 40C192 40 160 48 137 65C101 90 90 132 90 185V512C90 568 107 607 141 631C166 649 202 658 246 658C280 658 316 651 353 637ZM577 -50H527L487 -119L500 -148C527 -146 552 -142 574 -141C608 -141 632 -148 632 -183C632 -223 600 -235 561 -234C534 -234 505 -228 478 -223C470 -252 473 -243 466 -271C469 -271 520 -283 567 -283C646 -283 683 -234 682 -185C682 -135 643 -85 577 -92C568 -93 559 -93 551 -94Z" glyph-name="Ccedilla" unicode="&#199;" /></svg>