<svg version="1.1" width="694" xmlns="http://www.w3.org/2000/svg"><defs /><path d="M662 187V326C662 496 530 581 346 582C163 581 31 496 31 326V187C31 16 163 -68 346 -69C530 -68 662 16 662 187ZM603 301V211C603 48 521 -13 346 -15C171 -13 90 48 90 211V301C90 464 171 526 346 528C521 526 603 464 603 301ZM485 383 501 420C459 442 410 453 359 453C319 453 282 446 253 428C195 393 166 337 166 249C166 165 199 110 247 82C296 58 343 58 364 58C416 58 470 68 526 90L514 137C457 118 409 108 369 108C323 108 291 117 268 133C234 158 223 202 223 254C223 310 240 352 274 376C299 394 333 404 377 404C411 404 448 396 485 383Z" glyph-name="copyright" unicode="&#169;" /></svg>