<svg version="1.1" width="465" xmlns="http://www.w3.org/2000/svg"><defs /><path d="M350 365 432 448 397 483 314 400C291 418 263 428 232 428C200 428 171 418 147 400L66 483L31 448L112 365C95 342 87 313 87 283C87 251 97 222 113 199L31 117L66 81L148 164C171 147 200 137 232 137C263 137 290 147 314 164L397 81L432 117L350 199C366 222 376 251 376 283C376 313 366 342 350 365ZM232 188C179 188 137 230 137 283C137 334 179 376 232 376C284 376 325 334 325 283C325 230 284 188 232 188Z" glyph-name="currency" unicode="&#164;" /></svg>