<svg version="1.1" width="542" xmlns="http://www.w3.org/2000/svg"><defs /><path d="M413 0V698H357V471C312 491 260 508 195 508C115 508 29 470 29 358C29 295 29 231 29 168C29 21 127 -14 256 -10C305 -9 413 0 413 0ZM357 422C357 297 357 172 357 46C357 46 316 42 252 38C118 33 84 80 84 175C84 195 84 332 84 354C84 446 154 461 191 461C255 461 303 444 357 422ZM452 543 469 531C489 549 522 588 522 651C522 671 507 684 488 684C470 684 455 670 455 651C455 635 467 621 482 618C480 597 472 570 452 543Z" glyph-name="dcaron" unicode="&#271;" /></svg>