<svg version="1.1" width="431" xmlns="http://www.w3.org/2000/svg"><defs /><path d="M241 651H334L356 698H244C172 702 129 653 126 597C125 572 134 541 165 510C169 507 171 505 174 502C161 498 114 486 82 457C48 424 28 373 28 308V183C28 62 88 -11 215 -11C338 -11 400 54 400 183V279C400 321 390 367 368 402C340 444 315 463 284 485C268 496 235 520 230 524C203 546 180 558 180 598C180 630 205 651 241 651ZM344 294V173C344 84 301 38 216 38C136 38 84 85 84 173V308C84 356 96 394 120 418C163 463 228 463 228 463C237 457 246 452 254 447C305 413 344 360 344 294Z" glyph-name="delta" unicode="&#948;" /></svg>