<svg version="1.1" width="531" xmlns="http://www.w3.org/2000/svg"><defs /><path d="M420 617 438 669C392 694 332 707 275 707C220 706 166 693 127 664C89 638 65 599 63 547C57 447 131 402 215 365C248 351 282 338 313 323C385 291 443 253 440 177C438 140 425 111 405 90C370 55 315 41 260 41C204 41 159 62 132 82C84 119 73 159 73 159L27 131C27 131 46 77 103 35C140 9 191 -13 264 -13C328 -13 393 3 439 42C474 73 497 117 499 178C504 280 427 333 340 372C305 388 268 403 235 417C168 446 117 479 120 540C122 579 140 606 166 625C196 643 234 653 276 653C326 653 378 640 420 617ZM248 -113H304V815H248Z" glyph-name="dollar" unicode="$" /></svg>