<svg version="1.1" width="419" xmlns="http://www.w3.org/2000/svg"><defs /><path d="M87 133V195L391 211V341C391 392 376 432 348 461C317 492 272 508 215 508C165 508 124 496 93 473C54 444 31 398 31 338V133C31 80 48 46 72 24C113 -13 173 -12 203 -12C253 -11 315 4 366 35L344 78C293 51 247 36 198 36C179 36 138 36 113 63C97 77 87 99 87 133ZM335 348C335 319 335 289 335 261L87 250C87 278 87 308 87 337C87 378 99 408 121 429C145 450 176 461 214 461C247 461 281 454 312 418C327 399 335 377 335 348ZM405 817C418 831 416 854 398 864C381 874 361 863 355 845L317 738H352Z" glyph-name="eacute" unicode="&#233;" /></svg>