<svg version="1.1" width="481" xmlns="http://www.w3.org/2000/svg"><defs /><path d="M240 707C191 707 150 690 116 656C83 621 66 581 66 531C66 490 78 453 101 425C112 410 125 398 140 388C115 374 92 355 74 333C45 297 27 251 27 200C27 142 48 90 89 50C129 9 180 -12 239 -12C298 -12 349 9 390 50C431 90 452 142 452 200C452 248 436 290 410 326C389 353 362 374 339 387C355 397 369 410 380 424C403 452 415 488 415 531C415 581 399 621 365 656C331 690 289 707 240 707ZM239 411C203 411 170 428 148 453C129 474 118 503 118 532C118 599 172 654 239 654C306 654 360 599 360 532C360 503 349 474 331 453C309 428 276 411 239 411ZM239 44C152 44 83 114 83 200C83 238 96 273 118 299C147 334 191 356 239 356C291 356 337 332 366 294C385 267 396 235 396 200C396 114 326 44 239 44Z" glyph-name="eight" unicode="8" /></svg>