<svg version="1.1" width="596" xmlns="http://www.w3.org/2000/svg"><defs /><path d="M498 627V0H554V664C514 690 475 703 427 703C379 703 340 689 313 662C274 690 229 704 181 704C131 704 39 668 39 559C39 373 39 186 39 0H95V446H186C194 463 202 481 209 498H95C95 515 95 531 95 548C95 627 139 657 201 650C226 648 253 636 283 618C275 599 268 580 268 559C268 373 268 186 268 0H328V446H418C426 463 434 481 442 498H328V555C328 591 345 618 378 636C405 651 445 654 498 627Z" glyph-name="ffl" unicode="&#64260;" /></svg>