<svg version="1.1" width="435" xmlns="http://www.w3.org/2000/svg"><defs /><path d="M400 -64V498H343V451C299 487 249 506 201 508C92 513 31 450 31 345V175C31 53 90 -12 202 -12C262 -12 320 20 343 61V-63C343 -116 320 -150 276 -167L292 -210C368 -186 400 -144 400 -64ZM343 392V173C343 88 281 40 205 40C129 40 87 82 87 166V342C87 432 150 463 213 458C257 454 314 433 343 392ZM593 666 576 678C556 661 524 621 523 558C524 538 538 525 557 525C576 525 590 540 590 558C590 575 578 588 563 591C565 612 572 640 593 666Z" glyph-name="gcommaaccent" unicode="&#291;" /></svg>