<svg version="1.1" width="477" xmlns="http://www.w3.org/2000/svg"><defs /><path d="M353 636 370 674C327 696 279 707 228 707C187 707 151 698 121 682C64 647 34 586 34 502V188C34 122 54 73 96 40C137 7 187 -10 247 -10C308 -10 354 7 390 41L404 0H445V299H243L263 244H392V186C392 143 378 109 352 84C327 58 290 44 245 44C155 44 90 98 90 186V510C90 562 105 599 133 624C160 646 197 657 247 657C280 657 316 650 353 636ZM371 883C352 883 338 868 338 849C338 831 352 816 371 816C389 816 404 831 404 849C404 868 389 883 371 883Z" glyph-name="Gdotaccent" unicode="&#288;" /></svg>