<svg version="1.1" width="464" xmlns="http://www.w3.org/2000/svg"><defs /><path d="M95 0V539C95 610 124 645 178 645C221 645 246 610 249 575C252 540 234 506 189 506C174 480 170 455 172 433C177 380 228 337 277 294C329 249 380 204 380 143C380 76 329 44 273 43C234 43 192 57 163 85C153 68 143 53 133 36C173 3 229 -13 282 -11C363 -8 438 40 438 141C438 219 382 275 327 323C280 365 234 400 229 439C228 451 230 463 238 475C237 475 268 475 268 475C294 497 306 533 304 570C302 635 256 703 173 698C86 698 39 638 39 536C39 358 39 178 39 0C57 0 76 0 95 0Z" glyph-name="germandbls" unicode="&#223;" /></svg>