<svg version="1.1" width="465" xmlns="http://www.w3.org/2000/svg"><defs /><path d="M75 708C56 708 41 693 41 674C41 656 56 641 75 641C92 641 108 656 108 674C108 693 92 708 75 708ZM418 674C418 693 403 707 384 707C366 707 351 693 351 674C351 656 366 641 384 641C403 641 418 656 418 674ZM359 500V173C359 102 303 44 232 44C170 44 102 69 102 161V499H46V157C46 44 110 -9 220 -9C270 -9 326 10 359 50V-61C359 -89 353 -112 340 -130C329 -145 314 -157 294 -165L310 -208C342 -197 366 -184 384 -165C406 -140 415 -107 415 -62V500Z" glyph-name="ij" unicode="&#307;" /></svg>