<svg version="1.1" width="480" xmlns="http://www.w3.org/2000/svg"><defs /><path d="M235 707C175 707 126 686 85 646C44 605 23 554 23 495C23 437 44 386 85 345C126 305 176 284 238 284C298 284 350 307 392 352V245C392 182 374 135 337 102C301 70 258 54 207 54H169V-1H204C292 -1 361 34 396 84C431 131 447 183 447 238V495C447 554 426 605 385 646C345 686 293 707 235 707ZM235 652C322 652 392 582 392 495C392 409 322 339 235 339C148 339 79 409 79 495C79 582 148 652 235 652Z" glyph-name="nine" unicode="9" /></svg>