<svg version="1.1" width="440" xmlns="http://www.w3.org/2000/svg"><defs /><path d="M351 341V0H406V344C406 449 342 508 232 508C183 508 132 491 94 465V499H38V0H94V424C135 447 176 458 221 458C285 458 351 431 351 341ZM425 852V834C425 815 420 794 396 805C387 809 382 813 371 820C357 829 343 840 328 846C305 856 276 856 256 840C236 823 231 797 231 773V755H281V773C281 780 280 795 287 801C296 808 309 801 319 795C330 788 341 780 353 773C370 762 388 752 409 752C455 752 475 792 475 834V852Z" glyph-name="ntilde" unicode="&#241;" /></svg>