<svg version="1.1" width="490" xmlns="http://www.w3.org/2000/svg"><defs /><path d="M34 506V185C34 56 127 -11 245 -11C368 -11 454 64 454 185V505C454 635 378 714 246 714C114 714 34 642 34 506ZM90 186V515C90 612 151 661 243 661C337 661 399 612 399 515V186C399 88 335 42 243 42C155 42 90 90 90 186ZM299 875C281 875 266 860 266 841C266 822 281 808 299 808C317 808 333 822 333 841C333 860 317 875 299 875ZM457 875C438 875 424 860 424 841C424 822 438 808 457 808C476 808 490 822 490 841C490 860 476 875 457 875Z" glyph-name="Odieresis" unicode="&#214;" /></svg>