<svg version="1.1" width="431" xmlns="http://www.w3.org/2000/svg"><defs /><path d="M398 184V315C398 436 334 510 215 510C96 510 29 442 29 315V184C29 75 93 -10 217 -10C340 -10 398 71 398 184ZM342 315V174C342 92 300 40 217 40C136 40 85 94 85 174V315C85 411 129 460 217 460C303 460 342 411 342 315ZM269 875C251 875 236 860 236 841C236 822 251 808 269 808C287 808 303 822 303 841C303 860 287 875 269 875ZM427 875C408 875 394 860 394 841C394 822 408 808 427 808C446 808 460 822 460 841C460 860 446 875 427 875Z" glyph-name="odieresis" unicode="&#246;" /></svg>