<svg version="1.1" width="739" xmlns="http://www.w3.org/2000/svg"><defs /><path d="M405 133V195L709 211V341C709 392 693 432 666 461C635 492 590 508 533 508C483 508 442 496 411 473C394 461 381 447 371 429C342 481 290 510 215 510C96 510 29 442 29 315V184C29 75 93 -10 217 -10C286 -10 335 15 363 58C370 45 380 33 390 24C431 -13 491 -12 521 -12C571 -11 633 4 683 35L661 78C611 51 565 36 516 36C497 36 456 36 431 63C415 77 405 99 405 133ZM342 315V174C342 92 300 40 217 40C136 40 85 94 85 174V315C85 411 129 460 217 460C303 460 342 411 342 315ZM653 348V261L405 250V337C405 378 417 408 439 429C462 450 494 461 532 461C565 461 599 454 630 418C645 399 653 377 653 348Z" glyph-name="oe" unicode="&#339;" /></svg>