<svg version="1.1" width="589" xmlns="http://www.w3.org/2000/svg"><defs /><path d="M455 497 423 453C478 437 505 394 505 324V176C505 84 461 40 404 40C348 40 326 77 326 156V296H269V156C265 77 245 40 188 40C132 40 86 84 86 176V324C86 394 115 437 170 453L139 497C67 471 30 409 30 315V186C30 54 85 -13 192 -13C237 -13 272 4 297 40C319 4 354 -13 402 -13C509 -13 561 54 561 186V315C561 409 526 471 455 497ZM496 817C509 831 507 854 489 864C472 874 452 863 446 845L408 738H443Z" glyph-name="omegatonos" unicode="&#974;" /></svg>