<svg version="1.1" width="490" xmlns="http://www.w3.org/2000/svg"><defs /><path d="M34 506V185C34 56 127 -11 245 -11C368 -11 454 64 454 185V505C454 635 378 714 246 714C114 714 34 642 34 506ZM90 186V515C90 612 151 661 243 661C337 661 399 612 399 515V186C399 88 335 42 243 42C155 42 90 90 90 186ZM450 852V834C450 815 445 794 421 805C412 809 407 813 396 820C382 829 368 840 353 846C330 856 301 856 281 840C261 823 256 797 256 773V755H306V773C306 780 305 795 312 801C321 808 334 801 344 795C355 788 366 780 378 773C395 762 413 752 434 752C480 752 500 792 500 834V852Z" glyph-name="Otilde" unicode="&#213;" /></svg>