<svg version="1.1" width="429" xmlns="http://www.w3.org/2000/svg"><defs /><path d="M398 184V315C398 436 334 510 215 510C96 510 29 442 29 315V184C29 75 93 -10 217 -10C340 -10 398 71 398 184ZM342 315V174C342 92 300 40 217 40C136 40 85 94 85 174V315C85 411 129 460 217 460C303 460 342 411 342 315ZM419 852V834C419 815 414 794 390 805C381 809 376 813 365 820C351 829 337 840 322 846C299 856 270 856 250 840C230 823 225 797 225 773V755H275V773C275 780 274 795 281 801C290 808 303 801 313 795C324 788 335 780 347 773C364 762 382 752 403 752C449 752 469 792 469 834V852Z" glyph-name="otilde" unicode="&#245;" /></svg>