<svg version="1.1" width="711" xmlns="http://www.w3.org/2000/svg"><defs /><path d="M48 0H115L649 698H585ZM175 712C94 712 29 647 29 566C29 486 94 421 175 421C255 421 320 486 320 566C320 647 255 712 175 712ZM175 661C226 661 269 618 269 566C269 515 226 472 175 472C123 472 80 515 80 566C80 618 123 661 175 661ZM534 276C455 276 390 211 390 131C390 51 455 -14 534 -14C615 -14 679 51 679 131C679 211 615 276 534 276ZM534 226C587 226 629 184 629 131C629 79 587 37 534 37C483 37 441 79 441 131C441 184 483 226 534 226Z" glyph-name="percent" unicode="%" /></svg>