<svg version="1.1" width="1055" xmlns="http://www.w3.org/2000/svg"><defs /><path d="M49 0H117L650 698H586ZM175 712C94 712 29 647 29 566C29 486 94 421 175 421C254 421 320 486 320 566C320 647 254 712 175 712ZM175 661C226 661 268 618 268 566C268 515 226 472 175 472C122 472 80 515 80 566C80 618 122 661 175 661ZM534 276C454 276 389 211 389 131C389 51 454 -14 534 -14C615 -14 679 51 679 131C679 211 615 276 534 276ZM534 226C586 226 629 184 629 131C629 79 586 37 534 37C483 37 440 79 440 131C440 184 483 226 534 226ZM880 276C799 276 735 211 735 131C735 51 799 -14 880 -14C960 -14 1025 51 1025 131C1025 211 960 276 880 276ZM880 226C931 226 973 184 973 131C973 79 931 37 880 37C827 37 785 79 785 131C785 184 827 226 880 226Z" glyph-name="perthousand" unicode="&#8240;" /></svg>