<svg version="1.1" width="694" xmlns="http://www.w3.org/2000/svg"><defs /><path d="M662 187V326C662 496 530 581 346 582C163 581 31 496 31 326V187C31 16 163 -68 346 -69C530 -68 662 16 662 187ZM601 301V211C601 48 521 -13 346 -15C171 -13 90 48 90 211V301C90 464 171 526 346 528C521 526 601 464 601 301ZM384 442H180V59H233V176H382L439 59H503L440 185C479 197 515 229 514 311C512 430 437 442 384 442ZM387 232H233V388H387C440 388 462 365 462 310C462 256 438 232 387 232Z" glyph-name="registered" unicode="&#174;" /></svg>