<svg version="1.1" width="528" xmlns="http://www.w3.org/2000/svg"><defs /><path d="M419 618 436 670C390 695 331 708 273 707C218 707 164 693 125 664C87 639 63 599 60 547C56 448 129 402 213 365C246 351 280 339 312 324C383 293 442 254 438 177C436 140 423 112 402 91C368 56 313 42 258 42C202 42 158 62 129 84C82 120 71 159 71 159L26 132C26 132 44 77 102 35C138 9 190 -12 262 -12C326 -12 391 3 436 43C473 73 496 118 498 179C502 282 425 333 338 373C303 389 267 403 233 417C167 447 115 480 118 541C119 579 138 606 164 625C193 645 233 653 274 653C324 654 377 641 419 618Z" glyph-name="S" unicode="S" /></svg>