<svg version="1.1" width="416" xmlns="http://www.w3.org/2000/svg"><defs /><path d="M322 438 345 475C294 504 254 512 213 510C174 510 138 501 110 482C71 457 48 416 52 362C57 323 79 298 107 277C137 257 173 244 209 231C243 218 276 205 299 188C321 172 335 151 334 122C334 95 318 73 296 57C274 42 245 34 213 34C183 34 157 40 134 48C102 61 77 80 57 100L26 68C51 38 81 18 112 4C145 -11 180 -17 213 -18C253 -18 290 -9 320 10C361 36 389 79 386 133C383 170 367 197 344 218C314 244 272 261 233 276C202 287 172 298 148 311C125 324 108 341 104 364C98 398 113 424 137 440C158 454 185 462 215 463C251 464 291 455 322 438ZM571 -50H521L481 -119L494 -148C521 -146 546 -142 568 -141C602 -141 626 -148 626 -183C626 -223 594 -235 555 -234C528 -234 499 -228 472 -223C464 -252 467 -243 460 -271C463 -271 514 -283 561 -283C640 -283 677 -234 676 -185C676 -135 637 -85 571 -92C562 -93 553 -93 545 -94Z" glyph-name="scedilla" unicode="&#351;" /></svg>