<svg version="1.1" width="418" xmlns="http://www.w3.org/2000/svg"><defs /><path d="M322 438 345 475C294 504 254 512 213 510C174 510 138 501 110 482C71 457 48 416 52 362C57 323 79 298 107 277C137 257 173 244 209 231C243 218 276 205 299 188C321 172 335 151 334 122C334 95 318 73 296 57C274 42 245 34 213 34C183 34 157 40 134 48C102 61 77 80 57 100L26 68C51 38 81 18 112 4C145 -11 180 -17 213 -18C253 -18 290 -9 320 10C361 36 389 79 386 133C383 170 367 197 344 218C314 244 272 261 233 276C202 287 172 298 148 311C125 324 108 341 104 364C98 398 113 424 137 440C158 454 185 462 215 463C251 464 291 455 322 438ZM472 777 343 904 212 776 251 738 343 828 432 740Z" glyph-name="scircumflex" unicode="&#349;" /></svg>