<svg version="1.1" width="427" xmlns="http://www.w3.org/2000/svg"><defs /><path d="M113 53H34V0H392V53H270C287 64 300 77 311 94C360 167 348 254 289 324C285 329 281 334 277 339H392V396H226C205 419 186 441 176 453C131 506 104 559 132 605C149 637 179 651 212 654C253 659 299 645 341 620L360 669C308 697 247 712 194 705C149 700 108 680 83 635C39 555 77 485 134 419C138 414 145 405 154 396H34V339H205C220 323 233 307 247 291C297 234 297 168 260 118C221 61 160 53 113 53Z" glyph-name="sterling" unicode="&#163;" /></svg>