<svg version="1.1" width="496" xmlns="http://www.w3.org/2000/svg"><defs /><path d="M456 185V698H401V186C401 140 386 106 362 81C335 54 295 42 247 42C205 42 167 53 141 74C110 98 93 135 93 186V698H38V185C38 118 59 68 99 36C141 4 191 -11 248 -11C304 -11 353 4 394 36C435 68 456 118 456 185ZM302 875C284 875 269 860 269 841C269 822 284 808 302 808C320 808 336 822 336 841C336 860 320 875 302 875ZM460 875C441 875 427 860 427 841C427 822 441 808 460 808C479 808 493 822 493 841C493 860 479 875 460 875Z" glyph-name="Udieresis" unicode="&#220;" /></svg>