<svg version="1.1" width="494" xmlns="http://www.w3.org/2000/svg"><defs /><path d="M456 185V698H401V186C401 140 386 106 362 81C335 54 295 42 247 42C205 42 167 53 141 74C110 98 93 135 93 186V698H38V185C38 118 59 68 99 36C141 4 191 -11 248 -11C304 -11 353 4 394 36C435 68 456 118 456 185ZM452 852V834C452 815 447 794 423 805C414 809 409 813 398 820C384 829 370 840 355 846C332 856 303 856 283 840C263 823 258 797 258 773V755H308V773C308 780 307 795 314 801C323 808 336 801 346 795C357 788 368 780 380 773C397 762 415 752 436 752C482 752 502 792 502 834V852Z" glyph-name="Utilde" unicode="&#360;" /></svg>