<svg version="1.1" width="440" xmlns="http://www.w3.org/2000/svg"><defs /><path d="M348 48V0H404V499H348V172C348 101 292 44 221 44C157 44 91 68 91 159V499H35V156C35 43 98 -10 209 -10C259 -10 314 9 348 48ZM425 852V834C425 815 420 794 396 805C387 809 382 813 371 820C357 829 343 840 328 846C305 856 276 856 256 840C236 823 231 797 231 773V755H281V773C281 780 280 795 287 801C296 808 309 801 319 795C330 788 341 780 353 773C370 762 388 752 409 752C455 752 475 792 475 834V852Z" glyph-name="utilde" unicode="&#361;" /></svg>