<svg version="1.1" width="430" xmlns="http://www.w3.org/2000/svg"><defs /><path d="M359 649 381 700C381 700 292 700 235 700C143 700 89 635 92 546C94 504 103 453 159 404C157 404 155 404 151 404C80 398 28 356 28 254C28 226 28 197 28 168C28 21 114 -14 243 -10C269 -9 311 -7 344 -4V-197L400 -211V51C374 48 277 41 240 38C106 33 84 80 84 175C84 195 84 228 84 251C84 341 144 358 180 358C243 358 288 346 288 346C293 363 300 378 305 395C305 395 283 400 273 403C191 421 155 477 149 543C147 607 181 649 238 649C274 649 359 649 359 649Z" glyph-name="xi" unicode="&#958;" /></svg>