<svg version="1.1" width="513" xmlns="http://www.w3.org/2000/svg"><defs /><path d="M472 155V698H416V422C416 380 391 339 352 319C325 306 290 299 249 299C205 299 165 310 132 334C100 360 86 395 86 451V698H30V462C30 381 50 330 92 295C132 260 188 241 259 244C349 250 398 285 416 305V152C416 86 396 45 355 30L368 -7C435 2 472 58 472 155ZM310 875C292 875 277 860 277 841C277 822 292 808 310 808C328 808 344 822 344 841C344 860 328 875 310 875ZM468 875C449 875 435 860 435 841C435 822 449 808 468 808C487 808 501 822 501 841C501 860 487 875 468 875Z" glyph-name="Ydieresis" unicode="&#376;" /></svg>